<?xml version="1.0" encoding="UTF-8" standalone="no"?>
<!-- Created with Inkscape (http://www.inkscape.org/) -->

<svg
   width="86.311668mm"
   height="64.953613mm"
   viewBox="0 0 86.311668 64.953613"
   version="1.1"
   id="svg1"
   inkscape:version="1.3 (0e150ed6c4, 2023-07-21)"
   sodipodi:docname="non-convex_sets.svg"
   xmlns:inkscape="http://www.inkscape.org/namespaces/inkscape"
   xmlns:sodipodi="http://sodipodi.sourceforge.net/DTD/sodipodi-0.dtd"
   xmlns="http://www.w3.org/2000/svg"
   xmlns:svg="http://www.w3.org/2000/svg">
  <sodipodi:namedview
     id="namedview1"
     pagecolor="#ffffff"
     bordercolor="#000000"
     borderopacity="0.25"
     inkscape:showpageshadow="2"
     inkscape:pageopacity="0.0"
     inkscape:pagecheckerboard="0"
     inkscape:deskcolor="#d1d1d1"
     inkscape:document-units="mm"
     inkscape:zoom="0.733172"
     inkscape:cx="17.049205"
     inkscape:cy="158.89859"
     inkscape:window-width="1920"
     inkscape:window-height="1043"
     inkscape:window-x="0"
     inkscape:window-y="0"
     inkscape:window-maximized="1"
     inkscape:current-layer="layer1" />
  <defs
     id="defs1">
    <marker
       style="overflow:visible"
       id="marker16"
       refX="0"
       refY="0"
       orient="auto-start-reverse"
       inkscape:stockid="Dart arrow"
       markerWidth="1"
       markerHeight="1"
       viewBox="0 0 1 1"
       inkscape:isstock="true"
       inkscape:collect="always"
       preserveAspectRatio="xMidYMid">
      <path
         style="fill:context-stroke;fill-rule:evenodd;stroke:none"
         d="M 0,0 5,-5 -12.5,0 5,5 Z"
         transform="scale(-0.5)"
         id="path16" />
    </marker>
    <marker
       style="overflow:visible"
       id="DartArrow"
       refX="0"
       refY="0"
       orient="auto-start-reverse"
       inkscape:stockid="Dart arrow"
       markerWidth="1"
       markerHeight="1"
       viewBox="0 0 1 1"
       inkscape:isstock="true"
       inkscape:collect="always"
       preserveAspectRatio="xMidYMid">
      <path
         style="fill:context-stroke;fill-rule:evenodd;stroke:none"
         d="M 0,0 5,-5 -12.5,0 5,5 Z"
         transform="scale(-0.5)"
         id="path14" />
    </marker>
    <rect
       x="361.71487"
       y="381.07104"
       width="47.007854"
       height="28.139181"
       id="rect3" />
  </defs>
  <g
     inkscape:label="Layer 1"
     inkscape:groupmode="layer"
     id="layer1"
     transform="translate(-43.433325,-71.217946)">
    <text
       xml:space="preserve"
       transform="scale(0.26458333)"
       id="text3"
       style="white-space:pre;shape-inside:url(#rect3);display:inline;fill:#000000;fill-opacity:1;stroke:#000000;stroke-opacity:1" />
    <g
       id="g17">
      <path
         id="path1"
         style="fill:#000000;fill-opacity:0;stroke:#000000;stroke-width:0.231934;stroke-opacity:1"
         d="M 129.47173,97.898483 C 132.44758,115.37824 92.44504,88.806854 80.238667,100.09312 67.254662,112.0984 60.035322,150.3621 47.346167,130.38231 37.767953,115.30087 46.60182,83.108059 70.661254,74.030368 94.72069,64.952675 126.47328,80.285945 129.47173,97.898483 Z"
         sodipodi:nodetypes="sssss" />
      <g
         id="g10"
         transform="matrix(1.6413766,0,0,1.6413766,-101.38895,-40.004553)">
        <circle
           style="fill:#000000;fill-opacity:1;stroke:#000000;stroke-width:0.264583;stroke-opacity:1"
           id="path2"
           cx="93.723137"
           cy="99.471069"
           r="0.70412886" />
        <g
           inkscape:label=""
           transform="translate(95.298455,100.26139)"
           id="g6">
          <g
             fill="#000000"
             fill-opacity="1"
             id="g2"
             transform="matrix(0.352778,0,0,0.352778,-0.570794,-0.661238)">
            <g
               id="use1"
               transform="translate(1.993,7.1399999)">
              <path
                 d="M 0.515625,1.515625 C 0.4375,1.875 0.375,1.96875 -0.109375,1.96875 c -0.140625,0 -0.265625,0 -0.265625,0.234375 0,0.015625 0.015625,0.109375 0.140625,0.109375 0.15625,0 0.328125,-0.015625 0.484375,-0.015625 h 0.515625 c 0.25,0 0.859375,0.015625 1.109375,0.015625 0.078125,0 0.21875,0 0.21875,-0.203125 C 2.09375,1.96875 2.015625,1.96875 1.8125,1.96875 1.25,1.96875 1.21875,1.890625 1.21875,1.796875 1.21875,1.65625 1.75,-0.40625 1.828125,-0.6875 c 0.125,0.34375 0.453125,0.8125 1.078125,0.8125 1.34375,0 2.8125,-1.765625 2.8125,-3.515625 0,-1.109375 -0.625,-1.875 -1.515625,-1.875 -0.765625,0 -1.421875,0.734375 -1.546875,0.90625 -0.09375,-0.59375 -0.5625,-0.90625 -1.046875,-0.90625 -0.34375,0 -0.625,0.15625 -0.84375,0.609375 C 0.546875,-4.21875 0.375,-3.484375 0.375,-3.4375 c 0,0.046875 0.0625,0.109375 0.140625,0.109375 0.09375,0 0.109375,-0.015625 0.171875,-0.296875 0.1875,-0.703125 0.40625,-1.40625 0.890625,-1.40625 0.28125,0 0.375,0.1875 0.375,0.546875 0,0.28125 -0.046875,0.40625 -0.09375,0.625 z m 2.0625,-5.25 C 2.671875,-4.0625 3,-4.40625 3.1875,-4.578125 c 0.140625,-0.125 0.53125,-0.453125 0.984375,-0.453125 0.53125,0 0.765625,0.53125 0.765625,1.140625 0,0.578125 -0.328125,1.9375 -0.640625,2.546875 C 4,-0.6875 3.453125,-0.125 2.90625,-0.125 c -0.8125,0 -0.953125,-1.015625 -0.953125,-1.0625 0,-0.046875 0.03125,-0.140625 0.046875,-0.203125 z m 0,0"
                 id="path6" />
            </g>
          </g>
        </g>
      </g>
      <g
         id="g11"
         transform="matrix(1.6413766,0,0,1.6413766,-50.932017,-59.285408)">
        <circle
           style="fill:#000000;fill-opacity:1;stroke:#000000;stroke-width:0.264583;stroke-opacity:1"
           id="path2-9"
           cx="101.44292"
           cy="92.816086"
           r="0.70412886" />
        <g
           inkscape:label=""
           transform="translate(103.49498,93.647118)"
           id="g9">
          <g
             fill="#000000"
             fill-opacity="1"
             id="g8"
             transform="matrix(0.352778,0,0,0.352778,-0.868451,-0.661238)">
            <g
               id="g7"
               transform="translate(1.993,7.1399999)">
              <path
                 d="m 5.265625,-5.15625 c 0,-0.0625 -0.046875,-0.109375 -0.109375,-0.109375 -0.09375,0 -0.546875,0.4375 -0.78125,0.859375 -0.21875,-0.546875 -0.578125,-0.859375 -1.09375,-0.859375 -1.359375,0 -2.8125,1.734375 -2.8125,3.515625 0,1.171875 0.6875,1.875 1.5,1.875 0.640625,0 1.15625,-0.484375 1.40625,-0.765625 L 3.390625,-0.625 2.9375,1.171875 2.828125,1.609375 c -0.109375,0.34375 -0.28125,0.34375 -0.84375,0.359375 -0.125,0 -0.25,0 -0.25,0.234375 0,0.078125 0.078125,0.109375 0.15625,0.109375 0.171875,0 0.375,-0.015625 0.546875,-0.015625 h 1.21875 c 0.1875,0 0.390625,0.015625 0.5625,0.015625 0.078125,0 0.21875,0 0.21875,-0.21875 0,-0.125 -0.09375,-0.125 -0.28125,-0.125 -0.5625,0 -0.59375,-0.078125 -0.59375,-0.171875 0,-0.0625 0.015625,-0.078125 0.046875,-0.234375 z m -1.6875,3.734375 C 3.53125,-1.21875 3.53125,-1.1875 3.359375,-0.96875 3.09375,-0.640625 2.5625,-0.125 2.015625,-0.125 1.515625,-0.125 1.25,-0.5625 1.25,-1.265625 c 0,-0.65625 0.359375,-2 0.59375,-2.5 0.40625,-0.84375 0.96875,-1.265625 1.4375,-1.265625 0.78125,0 0.9375,0.984375 0.9375,1.078125 0,0.015625 -0.03125,0.15625 -0.046875,0.1875 z m 0,0"
                 id="path7" />
            </g>
          </g>
        </g>
      </g>
      <path
         style="fill:#000000;fill-opacity:1;stroke:#000000;stroke-width:0.435;stroke-dasharray:none;stroke-opacity:1;marker-start:url(#marker16);marker-end:url(#DartArrow)"
         d="m 58.927279,119.91962 11.438402,-5.34735 m 32.762179,-15.297611 6.77693,-3.444985"
         id="path13"
         sodipodi:nodetypes="cccc" />
      <path
         style="fill:#000000;fill-opacity:1;stroke:#ff0404;stroke-width:0.435;stroke-dasharray:none;stroke-opacity:1"
         d="M 70.349372,114.6211 103.17177,99.260632"
         id="path17" />
    </g>
  </g>
</svg>
