<svg version="1.2" xmlns="http://www.w3.org/2000/svg" viewBox="0 0 600 700" width="100%" height="100%"><rect x="72" y="78" width="456" height="544" fill="#588157" fill-opacity="1" stroke="none" rx="4" transform="rotate(0, 300, 350)"><title>`F`.shape</title></rect><rect x="172" y="354" width="80" height="80" fill="#3a5a40" fill-opacity="1" stroke="none" rx="8" transform="rotate(0, 212, 394)"><title>`f_31`.shape</title></rect><g transform="rotate(0, 234, 372)translate(226.3194, 366.54)"><title>`f_31`.text</title><svg style="font-size: 12px" xmlns="http://www.w3.org/2000/svg" width="15.3612" height="10.92" role="img" focusable="false" viewBox="0 -705 1280.1 910"><g stroke="none" fill="#000000" stroke-width="0" transform="scale(1,-1)" fill-opacity="1"><g data-mml-node="math"><g data-mml-node="msub"><g data-mml-node="TeXAtom" data-mjx-texclass="ORD"><g data-mml-node="mi"><path data-c="1D453" d="M118 -162Q120 -162 124 -164T135 -167T147 -168Q160 -168 171 -155T187 -126Q197 -99 221 27T267 267T289 382V385H242Q195 385 192 387Q188 390 188 397L195 425Q197 430 203 430T250 431Q298 431 298 432Q298 434 307 482T319 540Q356 705 465 705Q502 703 526 683T550 630Q550 594 529 578T487 561Q443 561 443 603Q443 622 454 636T478 657L487 662Q471 668 457 668Q445 668 434 658T419 630Q412 601 403 552T387 469T380 433Q380 431 435 431Q480 431 487 430T498 424Q499 420 496 407T491 391Q489 386 482 386T428 385H372L349 263Q301 15 282 -47Q255 -132 212 -173Q175 -205 139 -205Q107 -205 81 -186T55 -132Q55 -95 76 -78T118 -61Q162 -61 162 -103Q162 -122 151 -136T127 -157L118 -162Z"/></g></g><g data-mml-node="TeXAtom" transform="translate(523,-150) scale(0.707)" data-mjx-texclass="ORD"><g data-mml-node="TeXAtom" data-mjx-texclass="ORD"><g data-mml-node="mn"><path data-c="33" d="M127 463Q100 463 85 480T69 524Q69 579 117 622T233 665Q268 665 277 664Q351 652 390 611T430 522Q430 470 396 421T302 350L299 348Q299 347 308 345T337 336T375 315Q457 262 457 175Q457 96 395 37T238 -22Q158 -22 100 21T42 130Q42 158 60 175T105 193Q133 193 151 175T169 130Q169 119 166 110T159 94T148 82T136 74T126 70T118 67L114 66Q165 21 238 21Q293 21 321 74Q338 107 338 175V195Q338 290 274 322Q259 328 213 329L171 330L168 332Q166 335 166 348Q166 366 174 366Q202 366 232 371Q266 376 294 413T322 525V533Q322 590 287 612Q265 626 240 626Q208 626 181 615T143 592T132 580H135Q138 579 143 578T153 573T165 566T175 555T183 540T186 520Q186 498 172 481T127 463Z"/><path data-c="31" d="M213 578L200 573Q186 568 160 563T102 556H83V602H102Q149 604 189 617T245 641T273 663Q275 666 285 666Q294 666 302 660V361L303 61Q310 54 315 52T339 48T401 46H427V0H416Q395 3 257 3Q121 3 100 0H88V46H114Q136 46 152 46T177 47T193 50T201 52T207 57T213 61V578Z" transform="translate(500,0)"/></g></g></g></g></g></g></svg></g><g transform="rotate(0, 212, 394)translate(208, 388.672)"><title>`f_31`.value</title><svg style="font-size: 16px" xmlns="http://www.w3.org/2000/svg" width="8" height="10.656" role="img" focusable="false" viewBox="0 -666 500 666"><g stroke="none" fill="#000000" stroke-width="0" transform="scale(1,-1)" fill-opacity="1"><g data-mml-node="math"><g data-mml-node="mn"><path data-c="32" d="M109 429Q82 429 66 447T50 491Q50 562 103 614T235 666Q326 666 387 610T449 465Q449 422 429 383T381 315T301 241Q265 210 201 149L142 93L218 92Q375 92 385 97Q392 99 409 186V189H449V186Q448 183 436 95T421 3V0H50V19V31Q50 38 56 46T86 81Q115 113 136 137Q145 147 170 174T204 211T233 244T261 278T284 308T305 340T320 369T333 401T340 431T343 464Q343 527 309 573T212 619Q179 619 154 602T119 569T109 550Q109 549 114 549Q132 549 151 535T170 489Q170 464 154 447T109 429Z"/></g></g></g></svg></g><g transform="rotate(0, 36, 394)translate(30.368000000000002, 388.584)"><title>4:3.$ANON_3</title><svg style="font-size: 16px" xmlns="http://www.w3.org/2000/svg" width="11.264" height="10.832" role="img" focusable="false" viewBox="0 -677 704 677"><g stroke="none" fill="#000000" stroke-width="0" transform="scale(1,-1)" fill-opacity="1"><g data-mml-node="math"><g data-mml-node="mi"><path data-c="1D447" d="M40 437Q21 437 21 445Q21 450 37 501T71 602L88 651Q93 669 101 677H569H659Q691 677 697 676T704 667Q704 661 687 553T668 444Q668 437 649 437Q640 437 637 437T631 442L629 445Q629 451 635 490T641 551Q641 586 628 604T573 629Q568 630 515 631Q469 631 457 630T439 622Q438 621 368 343T298 60Q298 48 386 46Q418 46 427 45T436 36Q436 31 433 22Q429 4 424 1L422 0Q419 0 415 0Q410 0 363 1T228 2Q99 2 64 0H49Q43 6 43 9T45 27Q49 40 55 46H83H94Q174 46 189 55Q190 56 191 56Q196 59 201 76T241 233Q258 301 269 344Q339 619 339 625Q339 630 310 630H279Q212 630 191 624Q146 614 121 583T67 467Q60 445 57 441T43 437H40Z"/></g></g></g></svg></g><g transform="rotate(0, 388, 42)translate(381.712, 36.184)"><title>5:3.$ANON_3</title><svg style="font-size: 16px" xmlns="http://www.w3.org/2000/svg" width="12.576" height="11.632" role="img" focusable="false" viewBox="0 -705 786 727"><g stroke="none" fill="#000000" stroke-width="0" transform="scale(1,-1)" fill-opacity="1"><g data-mml-node="math"><g data-mml-node="mi"><path data-c="1D43A" d="M50 252Q50 367 117 473T286 641T490 704Q580 704 633 653Q642 643 648 636T656 626L657 623Q660 623 684 649Q691 655 699 663T715 679T725 690L740 705H746Q760 705 760 698Q760 694 728 561Q692 422 692 421Q690 416 687 415T669 413H653Q647 419 647 422Q647 423 648 429T650 449T651 481Q651 552 619 605T510 659Q492 659 471 656T418 643T357 615T294 567T236 496T189 394T158 260Q156 242 156 221Q156 173 170 136T206 79T256 45T308 28T353 24Q407 24 452 47T514 106Q517 114 529 161T541 214Q541 222 528 224T468 227H431Q425 233 425 235T427 254Q431 267 437 273H454Q494 271 594 271Q634 271 659 271T695 272T707 272Q721 272 721 263Q721 261 719 249Q714 230 709 228Q706 227 694 227Q674 227 653 224Q646 221 643 215T629 164Q620 131 614 108Q589 6 586 3Q584 1 581 1Q571 1 553 21T530 52Q530 53 528 52T522 47Q448 -22 322 -22Q201 -22 126 55T50 252Z"/></g></g></g></svg></g><rect x="172" y="90" width="80" height="80" fill="#3a5a40" fill-opacity="1" stroke="none" rx="8" transform="rotate(0, 212, 130)"><title>`f_01`.shape</title></rect><g transform="rotate(0, 234, 108)translate(226.3194, 102.54)"><title>`f_01`.text</title><svg style="font-size: 12px" xmlns="http://www.w3.org/2000/svg" width="15.3612" height="10.92" role="img" focusable="false" viewBox="0 -705 1280.1 910"><g stroke="none" fill="#000000" stroke-width="0" transform="scale(1,-1)" fill-opacity="1"><g data-mml-node="math"><g data-mml-node="msub"><g data-mml-node="TeXAtom" data-mjx-texclass="ORD"><g data-mml-node="mi"><path data-c="1D453" d="M118 -162Q120 -162 124 -164T135 -167T147 -168Q160 -168 171 -155T187 -126Q197 -99 221 27T267 267T289 382V385H242Q195 385 192 387Q188 390 188 397L195 425Q197 430 203 430T250 431Q298 431 298 432Q298 434 307 482T319 540Q356 705 465 705Q502 703 526 683T550 630Q550 594 529 578T487 561Q443 561 443 603Q443 622 454 636T478 657L487 662Q471 668 457 668Q445 668 434 658T419 630Q412 601 403 552T387 469T380 433Q380 431 435 431Q480 431 487 430T498 424Q499 420 496 407T491 391Q489 386 482 386T428 385H372L349 263Q301 15 282 -47Q255 -132 212 -173Q175 -205 139 -205Q107 -205 81 -186T55 -132Q55 -95 76 -78T118 -61Q162 -61 162 -103Q162 -122 151 -136T127 -157L118 -162Z"/></g></g><g data-mml-node="TeXAtom" transform="translate(523,-150) scale(0.707)" data-mjx-texclass="ORD"><g data-mml-node="TeXAtom" data-mjx-texclass="ORD"><g data-mml-node="mn"><path data-c="30" d="M96 585Q152 666 249 666Q297 666 345 640T423 548Q460 465 460 320Q460 165 417 83Q397 41 362 16T301 -15T250 -22Q224 -22 198 -16T137 16T82 83Q39 165 39 320Q39 494 96 585ZM321 597Q291 629 250 629Q208 629 178 597Q153 571 145 525T137 333Q137 175 145 125T181 46Q209 16 250 16Q290 16 318 46Q347 76 354 130T362 333Q362 478 354 524T321 597Z"/><path data-c="31" d="M213 578L200 573Q186 568 160 563T102 556H83V602H102Q149 604 189 617T245 641T273 663Q275 666 285 666Q294 666 302 660V361L303 61Q310 54 315 52T339 48T401 46H427V0H416Q395 3 257 3Q121 3 100 0H88V46H114Q136 46 152 46T177 47T193 50T201 52T207 57T213 61V578Z" transform="translate(500,0)"/></g></g></g></g></g></g></svg></g><g transform="rotate(0, 212, 130)translate(208, 124.672)"><title>`f_01`.value</title><svg style="font-size: 16px" xmlns="http://www.w3.org/2000/svg" width="8" height="10.656" role="img" focusable="false" viewBox="0 -666 500 666"><g stroke="none" fill="#000000" stroke-width="0" transform="scale(1,-1)" fill-opacity="1"><g data-mml-node="math"><g data-mml-node="mn"><path data-c="31" d="M213 578L200 573Q186 568 160 563T102 556H83V602H102Q149 604 189 617T245 641T273 663Q275 666 285 666Q294 666 302 660V361L303 61Q310 54 315 52T339 48T401 46H427V0H416Q395 3 257 3Q121 3 100 0H88V46H114Q136 46 152 46T177 47T193 50T201 52T207 57T213 61V578Z"/></g></g></g></svg></g><rect x="172" y="266" width="80" height="80" fill="#3a5a40" fill-opacity="1" stroke="none" rx="8" transform="rotate(0, 212, 306)"><title>`f_21`.shape</title></rect><g transform="rotate(0, 234, 284)translate(226.3194, 278.54)"><title>`f_21`.text</title><svg style="font-size: 12px" xmlns="http://www.w3.org/2000/svg" width="15.3612" height="10.92" role="img" focusable="false" viewBox="0 -705 1280.1 910"><g stroke="none" fill="#000000" stroke-width="0" transform="scale(1,-1)" fill-opacity="1"><g data-mml-node="math"><g data-mml-node="msub"><g data-mml-node="TeXAtom" data-mjx-texclass="ORD"><g data-mml-node="mi"><path data-c="1D453" d="M118 -162Q120 -162 124 -164T135 -167T147 -168Q160 -168 171 -155T187 -126Q197 -99 221 27T267 267T289 382V385H242Q195 385 192 387Q188 390 188 397L195 425Q197 430 203 430T250 431Q298 431 298 432Q298 434 307 482T319 540Q356 705 465 705Q502 703 526 683T550 630Q550 594 529 578T487 561Q443 561 443 603Q443 622 454 636T478 657L487 662Q471 668 457 668Q445 668 434 658T419 630Q412 601 403 552T387 469T380 433Q380 431 435 431Q480 431 487 430T498 424Q499 420 496 407T491 391Q489 386 482 386T428 385H372L349 263Q301 15 282 -47Q255 -132 212 -173Q175 -205 139 -205Q107 -205 81 -186T55 -132Q55 -95 76 -78T118 -61Q162 -61 162 -103Q162 -122 151 -136T127 -157L118 -162Z"/></g></g><g data-mml-node="TeXAtom" transform="translate(523,-150) scale(0.707)" data-mjx-texclass="ORD"><g data-mml-node="TeXAtom" data-mjx-texclass="ORD"><g data-mml-node="mn"><path data-c="32" d="M109 429Q82 429 66 447T50 491Q50 562 103 614T235 666Q326 666 387 610T449 465Q449 422 429 383T381 315T301 241Q265 210 201 149L142 93L218 92Q375 92 385 97Q392 99 409 186V189H449V186Q448 183 436 95T421 3V0H50V19V31Q50 38 56 46T86 81Q115 113 136 137Q145 147 170 174T204 211T233 244T261 278T284 308T305 340T320 369T333 401T340 431T343 464Q343 527 309 573T212 619Q179 619 154 602T119 569T109 550Q109 549 114 549Q132 549 151 535T170 489Q170 464 154 447T109 429Z"/><path data-c="31" d="M213 578L200 573Q186 568 160 563T102 556H83V602H102Q149 604 189 617T245 641T273 663Q275 666 285 666Q294 666 302 660V361L303 61Q310 54 315 52T339 48T401 46H427V0H416Q395 3 257 3Q121 3 100 0H88V46H114Q136 46 152 46T177 47T193 50T201 52T207 57T213 61V578Z" transform="translate(500,0)"/></g></g></g></g></g></g></svg></g><g transform="rotate(0, 212, 306)translate(208, 300.672)"><title>`f_21`.value</title><svg style="font-size: 16px" xmlns="http://www.w3.org/2000/svg" width="8" height="10.656" role="img" focusable="false" viewBox="0 -666 500 666"><g stroke="none" fill="#000000" stroke-width="0" transform="scale(1,-1)" fill-opacity="1"><g data-mml-node="math"><g data-mml-node="mn"><path data-c="31" d="M213 578L200 573Q186 568 160 563T102 556H83V602H102Q149 604 189 617T245 641T273 663Q275 666 285 666Q294 666 302 660V361L303 61Q310 54 315 52T339 48T401 46H427V0H416Q395 3 257 3Q121 3 100 0H88V46H114Q136 46 152 46T177 47T193 50T201 52T207 57T213 61V578Z"/></g></g></g></svg></g><g transform="rotate(0, 36, 306)translate(29.712, 300.184)"><title>4:2.$ANON_3</title><svg style="font-size: 16px" xmlns="http://www.w3.org/2000/svg" width="12.576" height="11.632" role="img" focusable="false" viewBox="0 -705 786 727"><g stroke="none" fill="#000000" stroke-width="0" transform="scale(1,-1)" fill-opacity="1"><g data-mml-node="math"><g data-mml-node="mi"><path data-c="1D43A" d="M50 252Q50 367 117 473T286 641T490 704Q580 704 633 653Q642 643 648 636T656 626L657 623Q660 623 684 649Q691 655 699 663T715 679T725 690L740 705H746Q760 705 760 698Q760 694 728 561Q692 422 692 421Q690 416 687 415T669 413H653Q647 419 647 422Q647 423 648 429T650 449T651 481Q651 552 619 605T510 659Q492 659 471 656T418 643T357 615T294 567T236 496T189 394T158 260Q156 242 156 221Q156 173 170 136T206 79T256 45T308 28T353 24Q407 24 452 47T514 106Q517 114 529 161T541 214Q541 222 528 224T468 227H431Q425 233 425 235T427 254Q431 267 437 273H454Q494 271 594 271Q634 271 659 271T695 272T707 272Q721 272 721 263Q721 261 719 249Q714 230 709 228Q706 227 694 227Q674 227 653 224Q646 221 643 215T629 164Q620 131 614 108Q589 6 586 3Q584 1 581 1Q571 1 553 21T530 52Q530 53 528 52T522 47Q448 -22 322 -22Q201 -22 126 55T50 252Z"/></g></g></g></svg></g><rect x="348" y="354" width="80" height="80" fill="#3a5a40" fill-opacity="1" stroke="none" rx="8" transform="rotate(0, 388, 394)"><title>`f_33`.shape</title></rect><g transform="rotate(0, 410, 372)translate(402.3194, 366.54)"><title>`f_33`.text</title><svg style="font-size: 12px" xmlns="http://www.w3.org/2000/svg" width="15.3612" height="10.92" role="img" focusable="false" viewBox="0 -705 1280.1 910"><g stroke="none" fill="#000000" stroke-width="0" transform="scale(1,-1)" fill-opacity="1"><g data-mml-node="math"><g data-mml-node="msub"><g data-mml-node="TeXAtom" data-mjx-texclass="ORD"><g data-mml-node="mi"><path data-c="1D453" d="M118 -162Q120 -162 124 -164T135 -167T147 -168Q160 -168 171 -155T187 -126Q197 -99 221 27T267 267T289 382V385H242Q195 385 192 387Q188 390 188 397L195 425Q197 430 203 430T250 431Q298 431 298 432Q298 434 307 482T319 540Q356 705 465 705Q502 703 526 683T550 630Q550 594 529 578T487 561Q443 561 443 603Q443 622 454 636T478 657L487 662Q471 668 457 668Q445 668 434 658T419 630Q412 601 403 552T387 469T380 433Q380 431 435 431Q480 431 487 430T498 424Q499 420 496 407T491 391Q489 386 482 386T428 385H372L349 263Q301 15 282 -47Q255 -132 212 -173Q175 -205 139 -205Q107 -205 81 -186T55 -132Q55 -95 76 -78T118 -61Q162 -61 162 -103Q162 -122 151 -136T127 -157L118 -162Z"/></g></g><g data-mml-node="TeXAtom" transform="translate(523,-150) scale(0.707)" data-mjx-texclass="ORD"><g data-mml-node="TeXAtom" data-mjx-texclass="ORD"><g data-mml-node="mn"><path data-c="33" d="M127 463Q100 463 85 480T69 524Q69 579 117 622T233 665Q268 665 277 664Q351 652 390 611T430 522Q430 470 396 421T302 350L299 348Q299 347 308 345T337 336T375 315Q457 262 457 175Q457 96 395 37T238 -22Q158 -22 100 21T42 130Q42 158 60 175T105 193Q133 193 151 175T169 130Q169 119 166 110T159 94T148 82T136 74T126 70T118 67L114 66Q165 21 238 21Q293 21 321 74Q338 107 338 175V195Q338 290 274 322Q259 328 213 329L171 330L168 332Q166 335 166 348Q166 366 174 366Q202 366 232 371Q266 376 294 413T322 525V533Q322 590 287 612Q265 626 240 626Q208 626 181 615T143 592T132 580H135Q138 579 143 578T153 573T165 566T175 555T183 540T186 520Q186 498 172 481T127 463Z"/><path data-c="33" d="M127 463Q100 463 85 480T69 524Q69 579 117 622T233 665Q268 665 277 664Q351 652 390 611T430 522Q430 470 396 421T302 350L299 348Q299 347 308 345T337 336T375 315Q457 262 457 175Q457 96 395 37T238 -22Q158 -22 100 21T42 130Q42 158 60 175T105 193Q133 193 151 175T169 130Q169 119 166 110T159 94T148 82T136 74T126 70T118 67L114 66Q165 21 238 21Q293 21 321 74Q338 107 338 175V195Q338 290 274 322Q259 328 213 329L171 330L168 332Q166 335 166 348Q166 366 174 366Q202 366 232 371Q266 376 294 413T322 525V533Q322 590 287 612Q265 626 240 626Q208 626 181 615T143 592T132 580H135Q138 579 143 578T153 573T165 566T175 555T183 540T186 520Q186 498 172 481T127 463Z" transform="translate(500,0)"/></g></g></g></g></g></g></svg></g><g transform="rotate(0, 388, 394)translate(384, 388.496)"><title>`f_33`.value</title><svg style="font-size: 16px" xmlns="http://www.w3.org/2000/svg" width="8" height="11.008" role="img" focusable="false" viewBox="0 -666 500 688"><g stroke="none" fill="#000000" stroke-width="0" transform="scale(1,-1)" fill-opacity="1"><g data-mml-node="math"><g data-mml-node="mn"><path data-c="30" d="M96 585Q152 666 249 666Q297 666 345 640T423 548Q460 465 460 320Q460 165 417 83Q397 41 362 16T301 -15T250 -22Q224 -22 198 -16T137 16T82 83Q39 165 39 320Q39 494 96 585ZM321 597Q291 629 250 629Q208 629 178 597Q153 571 145 525T137 333Q137 175 145 125T181 46Q209 16 250 16Q290 16 318 46Q347 76 354 130T362 333Q362 478 354 524T321 597Z"/></g></g></g></svg></g><g transform="rotate(0, 300, 42)translate(294.368, 36.584)"><title>5:2.$ANON_3</title><svg style="font-size: 16px" xmlns="http://www.w3.org/2000/svg" width="11.264" height="10.832" role="img" focusable="false" viewBox="0 -677 704 677"><g stroke="none" fill="#000000" stroke-width="0" transform="scale(1,-1)" fill-opacity="1"><g data-mml-node="math"><g data-mml-node="mi"><path data-c="1D447" d="M40 437Q21 437 21 445Q21 450 37 501T71 602L88 651Q93 669 101 677H569H659Q691 677 697 676T704 667Q704 661 687 553T668 444Q668 437 649 437Q640 437 637 437T631 442L629 445Q629 451 635 490T641 551Q641 586 628 604T573 629Q568 630 515 631Q469 631 457 630T439 622Q438 621 368 343T298 60Q298 48 386 46Q418 46 427 45T436 36Q436 31 433 22Q429 4 424 1L422 0Q419 0 415 0Q410 0 363 1T228 2Q99 2 64 0H49Q43 6 43 9T45 27Q49 40 55 46H83H94Q174 46 189 55Q190 56 191 56Q196 59 201 76T241 233Q258 301 269 344Q339 619 339 625Q339 630 310 630H279Q212 630 191 624Q146 614 121 583T67 467Q60 445 57 441T43 437H40Z"/></g></g></g></svg></g><g transform="rotate(0, 212, 42)translate(206, 36.272)"><title>5:1.$ANON_3</title><svg style="font-size: 16px" xmlns="http://www.w3.org/2000/svg" width="12" height="11.456" role="img" focusable="false" viewBox="0 -716 750 716"><g stroke="none" fill="#000000" stroke-width="0" transform="scale(1,-1)" fill-opacity="1"><g data-mml-node="math"><g data-mml-node="mi"><path data-c="1D434" d="M208 74Q208 50 254 46Q272 46 272 35Q272 34 270 22Q267 8 264 4T251 0Q249 0 239 0T205 1T141 2Q70 2 50 0H42Q35 7 35 11Q37 38 48 46H62Q132 49 164 96Q170 102 345 401T523 704Q530 716 547 716H555H572Q578 707 578 706L606 383Q634 60 636 57Q641 46 701 46Q726 46 726 36Q726 34 723 22Q720 7 718 4T704 0Q701 0 690 0T651 1T578 2Q484 2 455 0H443Q437 6 437 9T439 27Q443 40 445 43L449 46H469Q523 49 533 63L521 213H283L249 155Q208 86 208 74ZM516 260Q516 271 504 416T490 562L463 519Q447 492 400 412L310 260L413 259Q516 259 516 260Z"/></g></g></g></svg></g><g transform="rotate(0, 36, 570)translate(29.92, 564.184)"><title>4:5.$ANON_3</title><svg style="font-size: 16px" xmlns="http://www.w3.org/2000/svg" width="12.16" height="11.632" role="img" focusable="false" viewBox="0 -705 760 727"><g stroke="none" fill="#000000" stroke-width="0" transform="scale(1,-1)" fill-opacity="1"><g data-mml-node="math"><g data-mml-node="mi"><path data-c="1D436" d="M50 252Q50 367 117 473T286 641T490 704Q580 704 633 653Q642 643 648 636T656 626L657 623Q660 623 684 649Q691 655 699 663T715 679T725 690L740 705H746Q760 705 760 698Q760 694 728 561Q692 422 692 421Q690 416 687 415T669 413H653Q647 419 647 422Q647 423 648 429T650 449T651 481Q651 552 619 605T510 659Q484 659 454 652T382 628T299 572T226 479Q194 422 175 346T156 222Q156 108 232 58Q280 24 350 24Q441 24 512 92T606 240Q610 253 612 255T628 257Q648 257 648 248Q648 243 647 239Q618 132 523 55T319 -22Q206 -22 128 53T50 252Z"/></g></g></g></svg></g><rect x="348" y="442" width="80" height="80" fill="#3a5a40" fill-opacity="1" stroke="none" rx="8" transform="rotate(0, 388, 482)"><title>`f_43`.shape</title></rect><g transform="rotate(0, 410, 460)translate(402.3194, 454.54)"><title>`f_43`.text</title><svg style="font-size: 12px" xmlns="http://www.w3.org/2000/svg" width="15.3612" height="10.92" role="img" focusable="false" viewBox="0 -705 1280.1 910"><g stroke="none" fill="#000000" stroke-width="0" transform="scale(1,-1)" fill-opacity="1"><g data-mml-node="math"><g data-mml-node="msub"><g data-mml-node="TeXAtom" data-mjx-texclass="ORD"><g data-mml-node="mi"><path data-c="1D453" d="M118 -162Q120 -162 124 -164T135 -167T147 -168Q160 -168 171 -155T187 -126Q197 -99 221 27T267 267T289 382V385H242Q195 385 192 387Q188 390 188 397L195 425Q197 430 203 430T250 431Q298 431 298 432Q298 434 307 482T319 540Q356 705 465 705Q502 703 526 683T550 630Q550 594 529 578T487 561Q443 561 443 603Q443 622 454 636T478 657L487 662Q471 668 457 668Q445 668 434 658T419 630Q412 601 403 552T387 469T380 433Q380 431 435 431Q480 431 487 430T498 424Q499 420 496 407T491 391Q489 386 482 386T428 385H372L349 263Q301 15 282 -47Q255 -132 212 -173Q175 -205 139 -205Q107 -205 81 -186T55 -132Q55 -95 76 -78T118 -61Q162 -61 162 -103Q162 -122 151 -136T127 -157L118 -162Z"/></g></g><g data-mml-node="TeXAtom" transform="translate(523,-150) scale(0.707)" data-mjx-texclass="ORD"><g data-mml-node="TeXAtom" data-mjx-texclass="ORD"><g data-mml-node="mn"><path data-c="34" d="M462 0Q444 3 333 3Q217 3 199 0H190V46H221Q241 46 248 46T265 48T279 53T286 61Q287 63 287 115V165H28V211L179 442Q332 674 334 675Q336 677 355 677H373L379 671V211H471V165H379V114Q379 73 379 66T385 54Q393 47 442 46H471V0H462ZM293 211V545L74 212L183 211H293Z"/><path data-c="33" d="M127 463Q100 463 85 480T69 524Q69 579 117 622T233 665Q268 665 277 664Q351 652 390 611T430 522Q430 470 396 421T302 350L299 348Q299 347 308 345T337 336T375 315Q457 262 457 175Q457 96 395 37T238 -22Q158 -22 100 21T42 130Q42 158 60 175T105 193Q133 193 151 175T169 130Q169 119 166 110T159 94T148 82T136 74T126 70T118 67L114 66Q165 21 238 21Q293 21 321 74Q338 107 338 175V195Q338 290 274 322Q259 328 213 329L171 330L168 332Q166 335 166 348Q166 366 174 366Q202 366 232 371Q266 376 294 413T322 525V533Q322 590 287 612Q265 626 240 626Q208 626 181 615T143 592T132 580H135Q138 579 143 578T153 573T165 566T175 555T183 540T186 520Q186 498 172 481T127 463Z" transform="translate(500,0)"/></g></g></g></g></g></g></svg></g><g transform="rotate(0, 388, 482)translate(384, 476.672)"><title>`f_43`.value</title><svg style="font-size: 16px" xmlns="http://www.w3.org/2000/svg" width="8" height="10.656" role="img" focusable="false" viewBox="0 -666 500 666"><g stroke="none" fill="#000000" stroke-width="0" transform="scale(1,-1)" fill-opacity="1"><g data-mml-node="math"><g data-mml-node="mn"><path data-c="31" d="M213 578L200 573Q186 568 160 563T102 556H83V602H102Q149 604 189 617T245 641T273 663Q275 666 285 666Q294 666 302 660V361L303 61Q310 54 315 52T339 48T401 46H427V0H416Q395 3 257 3Q121 3 100 0H88V46H114Q136 46 152 46T177 47T193 50T201 52T207 57T213 61V578Z"/></g></g></g></svg></g><rect x="260" y="354" width="80" height="80" fill="#3a5a40" fill-opacity="1" stroke="none" rx="8" transform="rotate(0, 300, 394)"><title>`f_32`.shape</title></rect><g transform="rotate(0, 322, 372)translate(314.3194, 366.54)"><title>`f_32`.text</title><svg style="font-size: 12px" xmlns="http://www.w3.org/2000/svg" width="15.3612" height="10.92" role="img" focusable="false" viewBox="0 -705 1280.1 910"><g stroke="none" fill="#000000" stroke-width="0" transform="scale(1,-1)" fill-opacity="1"><g data-mml-node="math"><g data-mml-node="msub"><g data-mml-node="TeXAtom" data-mjx-texclass="ORD"><g data-mml-node="mi"><path data-c="1D453" d="M118 -162Q120 -162 124 -164T135 -167T147 -168Q160 -168 171 -155T187 -126Q197 -99 221 27T267 267T289 382V385H242Q195 385 192 387Q188 390 188 397L195 425Q197 430 203 430T250 431Q298 431 298 432Q298 434 307 482T319 540Q356 705 465 705Q502 703 526 683T550 630Q550 594 529 578T487 561Q443 561 443 603Q443 622 454 636T478 657L487 662Q471 668 457 668Q445 668 434 658T419 630Q412 601 403 552T387 469T380 433Q380 431 435 431Q480 431 487 430T498 424Q499 420 496 407T491 391Q489 386 482 386T428 385H372L349 263Q301 15 282 -47Q255 -132 212 -173Q175 -205 139 -205Q107 -205 81 -186T55 -132Q55 -95 76 -78T118 -61Q162 -61 162 -103Q162 -122 151 -136T127 -157L118 -162Z"/></g></g><g data-mml-node="TeXAtom" transform="translate(523,-150) scale(0.707)" data-mjx-texclass="ORD"><g data-mml-node="TeXAtom" data-mjx-texclass="ORD"><g data-mml-node="mn"><path data-c="33" d="M127 463Q100 463 85 480T69 524Q69 579 117 622T233 665Q268 665 277 664Q351 652 390 611T430 522Q430 470 396 421T302 350L299 348Q299 347 308 345T337 336T375 315Q457 262 457 175Q457 96 395 37T238 -22Q158 -22 100 21T42 130Q42 158 60 175T105 193Q133 193 151 175T169 130Q169 119 166 110T159 94T148 82T136 74T126 70T118 67L114 66Q165 21 238 21Q293 21 321 74Q338 107 338 175V195Q338 290 274 322Q259 328 213 329L171 330L168 332Q166 335 166 348Q166 366 174 366Q202 366 232 371Q266 376 294 413T322 525V533Q322 590 287 612Q265 626 240 626Q208 626 181 615T143 592T132 580H135Q138 579 143 578T153 573T165 566T175 555T183 540T186 520Q186 498 172 481T127 463Z"/><path data-c="32" d="M109 429Q82 429 66 447T50 491Q50 562 103 614T235 666Q326 666 387 610T449 465Q449 422 429 383T381 315T301 241Q265 210 201 149L142 93L218 92Q375 92 385 97Q392 99 409 186V189H449V186Q448 183 436 95T421 3V0H50V19V31Q50 38 56 46T86 81Q115 113 136 137Q145 147 170 174T204 211T233 244T261 278T284 308T305 340T320 369T333 401T340 431T343 464Q343 527 309 573T212 619Q179 619 154 602T119 569T109 550Q109 549 114 549Q132 549 151 535T170 489Q170 464 154 447T109 429Z" transform="translate(500,0)"/></g></g></g></g></g></g></svg></g><g transform="rotate(0, 300, 394)translate(296, 388.672)"><title>`f_32`.value</title><svg style="font-size: 16px" xmlns="http://www.w3.org/2000/svg" width="8" height="10.656" role="img" focusable="false" viewBox="0 -666 500 666"><g stroke="none" fill="#000000" stroke-width="0" transform="scale(1,-1)" fill-opacity="1"><g data-mml-node="math"><g data-mml-node="mn"><path data-c="31" d="M213 578L200 573Q186 568 160 563T102 556H83V602H102Q149 604 189 617T245 641T273 663Q275 666 285 666Q294 666 302 660V361L303 61Q310 54 315 52T339 48T401 46H427V0H416Q395 3 257 3Q121 3 100 0H88V46H114Q136 46 152 46T177 47T193 50T201 52T207 57T213 61V578Z"/></g></g></g></svg></g><rect x="260" y="266" width="80" height="80" fill="#3a5a40" fill-opacity="1" stroke="none" rx="8" transform="rotate(0, 300, 306)"><title>`f_22`.shape</title></rect><g transform="rotate(0, 322, 284)translate(314.3194, 278.54)"><title>`f_22`.text</title><svg style="font-size: 12px" xmlns="http://www.w3.org/2000/svg" width="15.3612" height="10.92" role="img" focusable="false" viewBox="0 -705 1280.1 910"><g stroke="none" fill="#000000" stroke-width="0" transform="scale(1,-1)" fill-opacity="1"><g data-mml-node="math"><g data-mml-node="msub"><g data-mml-node="TeXAtom" data-mjx-texclass="ORD"><g data-mml-node="mi"><path data-c="1D453" d="M118 -162Q120 -162 124 -164T135 -167T147 -168Q160 -168 171 -155T187 -126Q197 -99 221 27T267 267T289 382V385H242Q195 385 192 387Q188 390 188 397L195 425Q197 430 203 430T250 431Q298 431 298 432Q298 434 307 482T319 540Q356 705 465 705Q502 703 526 683T550 630Q550 594 529 578T487 561Q443 561 443 603Q443 622 454 636T478 657L487 662Q471 668 457 668Q445 668 434 658T419 630Q412 601 403 552T387 469T380 433Q380 431 435 431Q480 431 487 430T498 424Q499 420 496 407T491 391Q489 386 482 386T428 385H372L349 263Q301 15 282 -47Q255 -132 212 -173Q175 -205 139 -205Q107 -205 81 -186T55 -132Q55 -95 76 -78T118 -61Q162 -61 162 -103Q162 -122 151 -136T127 -157L118 -162Z"/></g></g><g data-mml-node="TeXAtom" transform="translate(523,-150) scale(0.707)" data-mjx-texclass="ORD"><g data-mml-node="TeXAtom" data-mjx-texclass="ORD"><g data-mml-node="mn"><path data-c="32" d="M109 429Q82 429 66 447T50 491Q50 562 103 614T235 666Q326 666 387 610T449 465Q449 422 429 383T381 315T301 241Q265 210 201 149L142 93L218 92Q375 92 385 97Q392 99 409 186V189H449V186Q448 183 436 95T421 3V0H50V19V31Q50 38 56 46T86 81Q115 113 136 137Q145 147 170 174T204 211T233 244T261 278T284 308T305 340T320 369T333 401T340 431T343 464Q343 527 309 573T212 619Q179 619 154 602T119 569T109 550Q109 549 114 549Q132 549 151 535T170 489Q170 464 154 447T109 429Z"/><path data-c="32" d="M109 429Q82 429 66 447T50 491Q50 562 103 614T235 666Q326 666 387 610T449 465Q449 422 429 383T381 315T301 241Q265 210 201 149L142 93L218 92Q375 92 385 97Q392 99 409 186V189H449V186Q448 183 436 95T421 3V0H50V19V31Q50 38 56 46T86 81Q115 113 136 137Q145 147 170 174T204 211T233 244T261 278T284 308T305 340T320 369T333 401T340 431T343 464Q343 527 309 573T212 619Q179 619 154 602T119 569T109 550Q109 549 114 549Q132 549 151 535T170 489Q170 464 154 447T109 429Z" transform="translate(500,0)"/></g></g></g></g></g></g></svg></g><g transform="rotate(0, 300, 306)translate(296, 300.496)"><title>`f_22`.value</title><svg style="font-size: 16px" xmlns="http://www.w3.org/2000/svg" width="8" height="11.008" role="img" focusable="false" viewBox="0 -666 500 688"><g stroke="none" fill="#000000" stroke-width="0" transform="scale(1,-1)" fill-opacity="1"><g data-mml-node="math"><g data-mml-node="mn"><path data-c="30" d="M96 585Q152 666 249 666Q297 666 345 640T423 548Q460 465 460 320Q460 165 417 83Q397 41 362 16T301 -15T250 -22Q224 -22 198 -16T137 16T82 83Q39 165 39 320Q39 494 96 585ZM321 597Q291 629 250 629Q208 629 178 597Q153 571 145 525T137 333Q137 175 145 125T181 46Q209 16 250 16Q290 16 318 46Q347 76 354 130T362 333Q362 478 354 524T321 597Z"/></g></g></g></svg></g><g transform="rotate(0, 124, 42)translate(117.776, 36.68)"><title>5:0.$ANON_3</title><svg style="font-size: 16px" xmlns="http://www.w3.org/2000/svg" width="12.448" height="10.64" role="img" focusable="false" viewBox="0 -583 778 665"><g stroke="none" fill="#000000" stroke-width="0" transform="scale(1,-1)" fill-opacity="1"><g data-mml-node="math"><g data-mml-node="mo"><path data-c="2212" d="M84 237T84 250T98 270H679Q694 262 694 250T679 230H98Q84 237 84 250Z"/></g></g></g></svg></g><rect x="348" y="530" width="80" height="80" fill="#3a5a40" fill-opacity="1" stroke="none" rx="8" transform="rotate(0, 388, 570)"><title>`f_53`.shape</title></rect><g transform="rotate(0, 410, 548)translate(402.3194, 542.54)"><title>`f_53`.text</title><svg style="font-size: 12px" xmlns="http://www.w3.org/2000/svg" width="15.3612" height="10.92" role="img" focusable="false" viewBox="0 -705 1280.1 910"><g stroke="none" fill="#000000" stroke-width="0" transform="scale(1,-1)" fill-opacity="1"><g data-mml-node="math"><g data-mml-node="msub"><g data-mml-node="TeXAtom" data-mjx-texclass="ORD"><g data-mml-node="mi"><path data-c="1D453" d="M118 -162Q120 -162 124 -164T135 -167T147 -168Q160 -168 171 -155T187 -126Q197 -99 221 27T267 267T289 382V385H242Q195 385 192 387Q188 390 188 397L195 425Q197 430 203 430T250 431Q298 431 298 432Q298 434 307 482T319 540Q356 705 465 705Q502 703 526 683T550 630Q550 594 529 578T487 561Q443 561 443 603Q443 622 454 636T478 657L487 662Q471 668 457 668Q445 668 434 658T419 630Q412 601 403 552T387 469T380 433Q380 431 435 431Q480 431 487 430T498 424Q499 420 496 407T491 391Q489 386 482 386T428 385H372L349 263Q301 15 282 -47Q255 -132 212 -173Q175 -205 139 -205Q107 -205 81 -186T55 -132Q55 -95 76 -78T118 -61Q162 -61 162 -103Q162 -122 151 -136T127 -157L118 -162Z"/></g></g><g data-mml-node="TeXAtom" transform="translate(523,-150) scale(0.707)" data-mjx-texclass="ORD"><g data-mml-node="TeXAtom" data-mjx-texclass="ORD"><g data-mml-node="mn"><path data-c="35" d="M164 157Q164 133 148 117T109 101H102Q148 22 224 22Q294 22 326 82Q345 115 345 210Q345 313 318 349Q292 382 260 382H254Q176 382 136 314Q132 307 129 306T114 304Q97 304 95 310Q93 314 93 485V614Q93 664 98 664Q100 666 102 666Q103 666 123 658T178 642T253 634Q324 634 389 662Q397 666 402 666Q410 666 410 648V635Q328 538 205 538Q174 538 149 544L139 546V374Q158 388 169 396T205 412T256 420Q337 420 393 355T449 201Q449 109 385 44T229 -22Q148 -22 99 32T50 154Q50 178 61 192T84 210T107 214Q132 214 148 197T164 157Z"/><path data-c="33" d="M127 463Q100 463 85 480T69 524Q69 579 117 622T233 665Q268 665 277 664Q351 652 390 611T430 522Q430 470 396 421T302 350L299 348Q299 347 308 345T337 336T375 315Q457 262 457 175Q457 96 395 37T238 -22Q158 -22 100 21T42 130Q42 158 60 175T105 193Q133 193 151 175T169 130Q169 119 166 110T159 94T148 82T136 74T126 70T118 67L114 66Q165 21 238 21Q293 21 321 74Q338 107 338 175V195Q338 290 274 322Q259 328 213 329L171 330L168 332Q166 335 166 348Q166 366 174 366Q202 366 232 371Q266 376 294 413T322 525V533Q322 590 287 612Q265 626 240 626Q208 626 181 615T143 592T132 580H135Q138 579 143 578T153 573T165 566T175 555T183 540T186 520Q186 498 172 481T127 463Z" transform="translate(500,0)"/></g></g></g></g></g></g></svg></g><g transform="rotate(0, 388, 570)translate(384, 564.672)"><title>`f_53`.value</title><svg style="font-size: 16px" xmlns="http://www.w3.org/2000/svg" width="8" height="10.656" role="img" focusable="false" viewBox="0 -666 500 666"><g stroke="none" fill="#000000" stroke-width="0" transform="scale(1,-1)" fill-opacity="1"><g data-mml-node="math"><g data-mml-node="mn"><path data-c="32" d="M109 429Q82 429 66 447T50 491Q50 562 103 614T235 666Q326 666 387 610T449 465Q449 422 429 383T381 315T301 241Q265 210 201 149L142 93L218 92Q375 92 385 97Q392 99 409 186V189H449V186Q448 183 436 95T421 3V0H50V19V31Q50 38 56 46T86 81Q115 113 136 137Q145 147 170 174T204 211T233 244T261 278T284 308T305 340T320 369T333 401T340 431T343 464Q343 527 309 573T212 619Q179 619 154 602T119 569T109 550Q109 549 114 549Q132 549 151 535T170 489Q170 464 154 447T109 429Z"/></g></g></g></svg></g><rect x="436" y="354" width="80" height="80" fill="#3a5a40" fill-opacity="1" stroke="none" rx="8" transform="rotate(0, 476, 394)"><title>`f_34`.shape</title></rect><g transform="rotate(0, 498, 372)translate(490.3194, 366.54)"><title>`f_34`.text</title><svg style="font-size: 12px" xmlns="http://www.w3.org/2000/svg" width="15.3612" height="10.92" role="img" focusable="false" viewBox="0 -705 1280.1 910"><g stroke="none" fill="#000000" stroke-width="0" transform="scale(1,-1)" fill-opacity="1"><g data-mml-node="math"><g data-mml-node="msub"><g data-mml-node="TeXAtom" data-mjx-texclass="ORD"><g data-mml-node="mi"><path data-c="1D453" d="M118 -162Q120 -162 124 -164T135 -167T147 -168Q160 -168 171 -155T187 -126Q197 -99 221 27T267 267T289 382V385H242Q195 385 192 387Q188 390 188 397L195 425Q197 430 203 430T250 431Q298 431 298 432Q298 434 307 482T319 540Q356 705 465 705Q502 703 526 683T550 630Q550 594 529 578T487 561Q443 561 443 603Q443 622 454 636T478 657L487 662Q471 668 457 668Q445 668 434 658T419 630Q412 601 403 552T387 469T380 433Q380 431 435 431Q480 431 487 430T498 424Q499 420 496 407T491 391Q489 386 482 386T428 385H372L349 263Q301 15 282 -47Q255 -132 212 -173Q175 -205 139 -205Q107 -205 81 -186T55 -132Q55 -95 76 -78T118 -61Q162 -61 162 -103Q162 -122 151 -136T127 -157L118 -162Z"/></g></g><g data-mml-node="TeXAtom" transform="translate(523,-150) scale(0.707)" data-mjx-texclass="ORD"><g data-mml-node="TeXAtom" data-mjx-texclass="ORD"><g data-mml-node="mn"><path data-c="33" d="M127 463Q100 463 85 480T69 524Q69 579 117 622T233 665Q268 665 277 664Q351 652 390 611T430 522Q430 470 396 421T302 350L299 348Q299 347 308 345T337 336T375 315Q457 262 457 175Q457 96 395 37T238 -22Q158 -22 100 21T42 130Q42 158 60 175T105 193Q133 193 151 175T169 130Q169 119 166 110T159 94T148 82T136 74T126 70T118 67L114 66Q165 21 238 21Q293 21 321 74Q338 107 338 175V195Q338 290 274 322Q259 328 213 329L171 330L168 332Q166 335 166 348Q166 366 174 366Q202 366 232 371Q266 376 294 413T322 525V533Q322 590 287 612Q265 626 240 626Q208 626 181 615T143 592T132 580H135Q138 579 143 578T153 573T165 566T175 555T183 540T186 520Q186 498 172 481T127 463Z"/><path data-c="34" d="M462 0Q444 3 333 3Q217 3 199 0H190V46H221Q241 46 248 46T265 48T279 53T286 61Q287 63 287 115V165H28V211L179 442Q332 674 334 675Q336 677 355 677H373L379 671V211H471V165H379V114Q379 73 379 66T385 54Q393 47 442 46H471V0H462ZM293 211V545L74 212L183 211H293Z" transform="translate(500,0)"/></g></g></g></g></g></g></svg></g><g transform="rotate(0, 476, 394)translate(472, 388.672)"><title>`f_34`.value</title><svg style="font-size: 16px" xmlns="http://www.w3.org/2000/svg" width="8" height="10.656" role="img" focusable="false" viewBox="0 -666 500 666"><g stroke="none" fill="#000000" stroke-width="0" transform="scale(1,-1)" fill-opacity="1"><g data-mml-node="math"><g data-mml-node="mn"><path data-c="31" d="M213 578L200 573Q186 568 160 563T102 556H83V602H102Q149 604 189 617T245 641T273 663Q275 666 285 666Q294 666 302 660V361L303 61Q310 54 315 52T339 48T401 46H427V0H416Q395 3 257 3Q121 3 100 0H88V46H114Q136 46 152 46T177 47T193 50T201 52T207 57T213 61V578Z"/></g></g></g></svg></g><g transform="rotate(0, 476, 42)translate(469.92, 36.184)"><title>5:4.$ANON_3</title><svg style="font-size: 16px" xmlns="http://www.w3.org/2000/svg" width="12.16" height="11.632" role="img" focusable="false" viewBox="0 -705 760 727"><g stroke="none" fill="#000000" stroke-width="0" transform="scale(1,-1)" fill-opacity="1"><g data-mml-node="math"><g data-mml-node="mi"><path data-c="1D436" d="M50 252Q50 367 117 473T286 641T490 704Q580 704 633 653Q642 643 648 636T656 626L657 623Q660 623 684 649Q691 655 699 663T715 679T725 690L740 705H746Q760 705 760 698Q760 694 728 561Q692 422 692 421Q690 416 687 415T669 413H653Q647 419 647 422Q647 423 648 429T650 449T651 481Q651 552 619 605T510 659Q484 659 454 652T382 628T299 572T226 479Q194 422 175 346T156 222Q156 108 232 58Q280 24 350 24Q441 24 512 92T606 240Q610 253 612 255T628 257Q648 257 648 248Q648 243 647 239Q618 132 523 55T319 -22Q206 -22 128 53T50 252Z"/></g></g></g></svg></g><rect x="172" y="178" width="80" height="80" fill="#3a5a40" fill-opacity="1" stroke="none" rx="8" transform="rotate(0, 212, 218)"><title>`f_11`.shape</title></rect><g transform="rotate(0, 234, 196)translate(226.3194, 190.54)"><title>`f_11`.text</title><svg style="font-size: 12px" xmlns="http://www.w3.org/2000/svg" width="15.3612" height="10.92" role="img" focusable="false" viewBox="0 -705 1280.1 910"><g stroke="none" fill="#000000" stroke-width="0" transform="scale(1,-1)" fill-opacity="1"><g data-mml-node="math"><g data-mml-node="msub"><g data-mml-node="TeXAtom" data-mjx-texclass="ORD"><g data-mml-node="mi"><path data-c="1D453" d="M118 -162Q120 -162 124 -164T135 -167T147 -168Q160 -168 171 -155T187 -126Q197 -99 221 27T267 267T289 382V385H242Q195 385 192 387Q188 390 188 397L195 425Q197 430 203 430T250 431Q298 431 298 432Q298 434 307 482T319 540Q356 705 465 705Q502 703 526 683T550 630Q550 594 529 578T487 561Q443 561 443 603Q443 622 454 636T478 657L487 662Q471 668 457 668Q445 668 434 658T419 630Q412 601 403 552T387 469T380 433Q380 431 435 431Q480 431 487 430T498 424Q499 420 496 407T491 391Q489 386 482 386T428 385H372L349 263Q301 15 282 -47Q255 -132 212 -173Q175 -205 139 -205Q107 -205 81 -186T55 -132Q55 -95 76 -78T118 -61Q162 -61 162 -103Q162 -122 151 -136T127 -157L118 -162Z"/></g></g><g data-mml-node="TeXAtom" transform="translate(523,-150) scale(0.707)" data-mjx-texclass="ORD"><g data-mml-node="TeXAtom" data-mjx-texclass="ORD"><g data-mml-node="mn"><path data-c="31" d="M213 578L200 573Q186 568 160 563T102 556H83V602H102Q149 604 189 617T245 641T273 663Q275 666 285 666Q294 666 302 660V361L303 61Q310 54 315 52T339 48T401 46H427V0H416Q395 3 257 3Q121 3 100 0H88V46H114Q136 46 152 46T177 47T193 50T201 52T207 57T213 61V578Z"/><path data-c="31" d="M213 578L200 573Q186 568 160 563T102 556H83V602H102Q149 604 189 617T245 641T273 663Q275 666 285 666Q294 666 302 660V361L303 61Q310 54 315 52T339 48T401 46H427V0H416Q395 3 257 3Q121 3 100 0H88V46H114Q136 46 152 46T177 47T193 50T201 52T207 57T213 61V578Z" transform="translate(500,0)"/></g></g></g></g></g></g></svg></g><g transform="rotate(0, 212, 218)translate(208, 212.496)"><title>`f_11`.value</title><svg style="font-size: 16px" xmlns="http://www.w3.org/2000/svg" width="8" height="11.008" role="img" focusable="false" viewBox="0 -666 500 688"><g stroke="none" fill="#000000" stroke-width="0" transform="scale(1,-1)" fill-opacity="1"><g data-mml-node="math"><g data-mml-node="mn"><path data-c="30" d="M96 585Q152 666 249 666Q297 666 345 640T423 548Q460 465 460 320Q460 165 417 83Q397 41 362 16T301 -15T250 -22Q224 -22 198 -16T137 16T82 83Q39 165 39 320Q39 494 96 585ZM321 597Q291 629 250 629Q208 629 178 597Q153 571 145 525T137 333Q137 175 145 125T181 46Q209 16 250 16Q290 16 318 46Q347 76 354 130T362 333Q362 478 354 524T321 597Z"/></g></g></g></svg></g><rect x="84" y="178" width="80" height="80" fill="#3a5a40" fill-opacity="1" stroke="none" rx="8" transform="rotate(0, 124, 218)"><title>`f_10`.shape</title></rect><g transform="rotate(0, 146, 196)translate(138.3194, 190.54)"><title>`f_10`.text</title><svg style="font-size: 12px" xmlns="http://www.w3.org/2000/svg" width="15.3612" height="10.92" role="img" focusable="false" viewBox="0 -705 1280.1 910"><g stroke="none" fill="#000000" stroke-width="0" transform="scale(1,-1)" fill-opacity="1"><g data-mml-node="math"><g data-mml-node="msub"><g data-mml-node="TeXAtom" data-mjx-texclass="ORD"><g data-mml-node="mi"><path data-c="1D453" d="M118 -162Q120 -162 124 -164T135 -167T147 -168Q160 -168 171 -155T187 -126Q197 -99 221 27T267 267T289 382V385H242Q195 385 192 387Q188 390 188 397L195 425Q197 430 203 430T250 431Q298 431 298 432Q298 434 307 482T319 540Q356 705 465 705Q502 703 526 683T550 630Q550 594 529 578T487 561Q443 561 443 603Q443 622 454 636T478 657L487 662Q471 668 457 668Q445 668 434 658T419 630Q412 601 403 552T387 469T380 433Q380 431 435 431Q480 431 487 430T498 424Q499 420 496 407T491 391Q489 386 482 386T428 385H372L349 263Q301 15 282 -47Q255 -132 212 -173Q175 -205 139 -205Q107 -205 81 -186T55 -132Q55 -95 76 -78T118 -61Q162 -61 162 -103Q162 -122 151 -136T127 -157L118 -162Z"/></g></g><g data-mml-node="TeXAtom" transform="translate(523,-150) scale(0.707)" data-mjx-texclass="ORD"><g data-mml-node="TeXAtom" data-mjx-texclass="ORD"><g data-mml-node="mn"><path data-c="31" d="M213 578L200 573Q186 568 160 563T102 556H83V602H102Q149 604 189 617T245 641T273 663Q275 666 285 666Q294 666 302 660V361L303 61Q310 54 315 52T339 48T401 46H427V0H416Q395 3 257 3Q121 3 100 0H88V46H114Q136 46 152 46T177 47T193 50T201 52T207 57T213 61V578Z"/><path data-c="30" d="M96 585Q152 666 249 666Q297 666 345 640T423 548Q460 465 460 320Q460 165 417 83Q397 41 362 16T301 -15T250 -22Q224 -22 198 -16T137 16T82 83Q39 165 39 320Q39 494 96 585ZM321 597Q291 629 250 629Q208 629 178 597Q153 571 145 525T137 333Q137 175 145 125T181 46Q209 16 250 16Q290 16 318 46Q347 76 354 130T362 333Q362 478 354 524T321 597Z" transform="translate(500,0)"/></g></g></g></g></g></g></svg></g><g transform="rotate(0, 124, 218)translate(120, 212.672)"><title>`f_10`.value</title><svg style="font-size: 16px" xmlns="http://www.w3.org/2000/svg" width="8" height="10.656" role="img" focusable="false" viewBox="0 -666 500 666"><g stroke="none" fill="#000000" stroke-width="0" transform="scale(1,-1)" fill-opacity="1"><g data-mml-node="math"><g data-mml-node="mn"><path data-c="31" d="M213 578L200 573Q186 568 160 563T102 556H83V602H102Q149 604 189 617T245 641T273 663Q275 666 285 666Q294 666 302 660V361L303 61Q310 54 315 52T339 48T401 46H427V0H416Q395 3 257 3Q121 3 100 0H88V46H114Q136 46 152 46T177 47T193 50T201 52T207 57T213 61V578Z"/></g></g></g></svg></g><rect x="436" y="442" width="80" height="80" fill="#3a5a40" fill-opacity="1" stroke="none" rx="8" transform="rotate(0, 476, 482)"><title>`f_44`.shape</title></rect><g transform="rotate(0, 498, 460)translate(490.3194, 454.54)"><title>`f_44`.text</title><svg style="font-size: 12px" xmlns="http://www.w3.org/2000/svg" width="15.3612" height="10.92" role="img" focusable="false" viewBox="0 -705 1280.1 910"><g stroke="none" fill="#000000" stroke-width="0" transform="scale(1,-1)" fill-opacity="1"><g data-mml-node="math"><g data-mml-node="msub"><g data-mml-node="TeXAtom" data-mjx-texclass="ORD"><g data-mml-node="mi"><path data-c="1D453" d="M118 -162Q120 -162 124 -164T135 -167T147 -168Q160 -168 171 -155T187 -126Q197 -99 221 27T267 267T289 382V385H242Q195 385 192 387Q188 390 188 397L195 425Q197 430 203 430T250 431Q298 431 298 432Q298 434 307 482T319 540Q356 705 465 705Q502 703 526 683T550 630Q550 594 529 578T487 561Q443 561 443 603Q443 622 454 636T478 657L487 662Q471 668 457 668Q445 668 434 658T419 630Q412 601 403 552T387 469T380 433Q380 431 435 431Q480 431 487 430T498 424Q499 420 496 407T491 391Q489 386 482 386T428 385H372L349 263Q301 15 282 -47Q255 -132 212 -173Q175 -205 139 -205Q107 -205 81 -186T55 -132Q55 -95 76 -78T118 -61Q162 -61 162 -103Q162 -122 151 -136T127 -157L118 -162Z"/></g></g><g data-mml-node="TeXAtom" transform="translate(523,-150) scale(0.707)" data-mjx-texclass="ORD"><g data-mml-node="TeXAtom" data-mjx-texclass="ORD"><g data-mml-node="mn"><path data-c="34" d="M462 0Q444 3 333 3Q217 3 199 0H190V46H221Q241 46 248 46T265 48T279 53T286 61Q287 63 287 115V165H28V211L179 442Q332 674 334 675Q336 677 355 677H373L379 671V211H471V165H379V114Q379 73 379 66T385 54Q393 47 442 46H471V0H462ZM293 211V545L74 212L183 211H293Z"/><path data-c="34" d="M462 0Q444 3 333 3Q217 3 199 0H190V46H221Q241 46 248 46T265 48T279 53T286 61Q287 63 287 115V165H28V211L179 442Q332 674 334 675Q336 677 355 677H373L379 671V211H471V165H379V114Q379 73 379 66T385 54Q393 47 442 46H471V0H462ZM293 211V545L74 212L183 211H293Z" transform="translate(500,0)"/></g></g></g></g></g></g></svg></g><g transform="rotate(0, 476, 482)translate(472, 476.496)"><title>`f_44`.value</title><svg style="font-size: 16px" xmlns="http://www.w3.org/2000/svg" width="8" height="11.008" role="img" focusable="false" viewBox="0 -666 500 688"><g stroke="none" fill="#000000" stroke-width="0" transform="scale(1,-1)" fill-opacity="1"><g data-mml-node="math"><g data-mml-node="mn"><path data-c="30" d="M96 585Q152 666 249 666Q297 666 345 640T423 548Q460 465 460 320Q460 165 417 83Q397 41 362 16T301 -15T250 -22Q224 -22 198 -16T137 16T82 83Q39 165 39 320Q39 494 96 585ZM321 597Q291 629 250 629Q208 629 178 597Q153 571 145 525T137 333Q137 175 145 125T181 46Q209 16 250 16Q290 16 318 46Q347 76 354 130T362 333Q362 478 354 524T321 597Z"/></g></g></g></svg></g><rect x="260" y="178" width="80" height="80" fill="#3a5a40" fill-opacity="1" stroke="none" rx="8" transform="rotate(0, 300, 218)"><title>`f_12`.shape</title></rect><g transform="rotate(0, 322, 196)translate(314.3194, 190.54)"><title>`f_12`.text</title><svg style="font-size: 12px" xmlns="http://www.w3.org/2000/svg" width="15.3612" height="10.92" role="img" focusable="false" viewBox="0 -705 1280.1 910"><g stroke="none" fill="#000000" stroke-width="0" transform="scale(1,-1)" fill-opacity="1"><g data-mml-node="math"><g data-mml-node="msub"><g data-mml-node="TeXAtom" data-mjx-texclass="ORD"><g data-mml-node="mi"><path data-c="1D453" d="M118 -162Q120 -162 124 -164T135 -167T147 -168Q160 -168 171 -155T187 -126Q197 -99 221 27T267 267T289 382V385H242Q195 385 192 387Q188 390 188 397L195 425Q197 430 203 430T250 431Q298 431 298 432Q298 434 307 482T319 540Q356 705 465 705Q502 703 526 683T550 630Q550 594 529 578T487 561Q443 561 443 603Q443 622 454 636T478 657L487 662Q471 668 457 668Q445 668 434 658T419 630Q412 601 403 552T387 469T380 433Q380 431 435 431Q480 431 487 430T498 424Q499 420 496 407T491 391Q489 386 482 386T428 385H372L349 263Q301 15 282 -47Q255 -132 212 -173Q175 -205 139 -205Q107 -205 81 -186T55 -132Q55 -95 76 -78T118 -61Q162 -61 162 -103Q162 -122 151 -136T127 -157L118 -162Z"/></g></g><g data-mml-node="TeXAtom" transform="translate(523,-150) scale(0.707)" data-mjx-texclass="ORD"><g data-mml-node="TeXAtom" data-mjx-texclass="ORD"><g data-mml-node="mn"><path data-c="31" d="M213 578L200 573Q186 568 160 563T102 556H83V602H102Q149 604 189 617T245 641T273 663Q275 666 285 666Q294 666 302 660V361L303 61Q310 54 315 52T339 48T401 46H427V0H416Q395 3 257 3Q121 3 100 0H88V46H114Q136 46 152 46T177 47T193 50T201 52T207 57T213 61V578Z"/><path data-c="32" d="M109 429Q82 429 66 447T50 491Q50 562 103 614T235 666Q326 666 387 610T449 465Q449 422 429 383T381 315T301 241Q265 210 201 149L142 93L218 92Q375 92 385 97Q392 99 409 186V189H449V186Q448 183 436 95T421 3V0H50V19V31Q50 38 56 46T86 81Q115 113 136 137Q145 147 170 174T204 211T233 244T261 278T284 308T305 340T320 369T333 401T340 431T343 464Q343 527 309 573T212 619Q179 619 154 602T119 569T109 550Q109 549 114 549Q132 549 151 535T170 489Q170 464 154 447T109 429Z" transform="translate(500,0)"/></g></g></g></g></g></g></svg></g><g transform="rotate(0, 300, 218)translate(296, 212.672)"><title>`f_12`.value</title><svg style="font-size: 16px" xmlns="http://www.w3.org/2000/svg" width="8" height="10.656" role="img" focusable="false" viewBox="0 -666 500 666"><g stroke="none" fill="#000000" stroke-width="0" transform="scale(1,-1)" fill-opacity="1"><g data-mml-node="math"><g data-mml-node="mn"><path data-c="31" d="M213 578L200 573Q186 568 160 563T102 556H83V602H102Q149 604 189 617T245 641T273 663Q275 666 285 666Q294 666 302 660V361L303 61Q310 54 315 52T339 48T401 46H427V0H416Q395 3 257 3Q121 3 100 0H88V46H114Q136 46 152 46T177 47T193 50T201 52T207 57T213 61V578Z"/></g></g></g></svg></g><g transform="rotate(0, 36, 218)translate(30, 212.272)"><title>4:1.$ANON_3</title><svg style="font-size: 16px" xmlns="http://www.w3.org/2000/svg" width="12" height="11.456" role="img" focusable="false" viewBox="0 -716 750 716"><g stroke="none" fill="#000000" stroke-width="0" transform="scale(1,-1)" fill-opacity="1"><g data-mml-node="math"><g data-mml-node="mi"><path data-c="1D434" d="M208 74Q208 50 254 46Q272 46 272 35Q272 34 270 22Q267 8 264 4T251 0Q249 0 239 0T205 1T141 2Q70 2 50 0H42Q35 7 35 11Q37 38 48 46H62Q132 49 164 96Q170 102 345 401T523 704Q530 716 547 716H555H572Q578 707 578 706L606 383Q634 60 636 57Q641 46 701 46Q726 46 726 36Q726 34 723 22Q720 7 718 4T704 0Q701 0 690 0T651 1T578 2Q484 2 455 0H443Q437 6 437 9T439 27Q443 40 445 43L449 46H469Q523 49 533 63L521 213H283L249 155Q208 86 208 74ZM516 260Q516 271 504 416T490 562L463 519Q447 492 400 412L310 260L413 259Q516 259 516 260Z"/></g></g></g></svg></g><rect x="436" y="530" width="80" height="80" fill="#3a5a40" fill-opacity="1" stroke="none" rx="8" transform="rotate(0, 476, 570)"><title>`f_54`.shape</title></rect><g transform="rotate(0, 498, 548)translate(490.3194, 542.54)"><title>`f_54`.text</title><svg style="font-size: 12px" xmlns="http://www.w3.org/2000/svg" width="15.3612" height="10.92" role="img" focusable="false" viewBox="0 -705 1280.1 910"><g stroke="none" fill="#000000" stroke-width="0" transform="scale(1,-1)" fill-opacity="1"><g data-mml-node="math"><g data-mml-node="msub"><g data-mml-node="TeXAtom" data-mjx-texclass="ORD"><g data-mml-node="mi"><path data-c="1D453" d="M118 -162Q120 -162 124 -164T135 -167T147 -168Q160 -168 171 -155T187 -126Q197 -99 221 27T267 267T289 382V385H242Q195 385 192 387Q188 390 188 397L195 425Q197 430 203 430T250 431Q298 431 298 432Q298 434 307 482T319 540Q356 705 465 705Q502 703 526 683T550 630Q550 594 529 578T487 561Q443 561 443 603Q443 622 454 636T478 657L487 662Q471 668 457 668Q445 668 434 658T419 630Q412 601 403 552T387 469T380 433Q380 431 435 431Q480 431 487 430T498 424Q499 420 496 407T491 391Q489 386 482 386T428 385H372L349 263Q301 15 282 -47Q255 -132 212 -173Q175 -205 139 -205Q107 -205 81 -186T55 -132Q55 -95 76 -78T118 -61Q162 -61 162 -103Q162 -122 151 -136T127 -157L118 -162Z"/></g></g><g data-mml-node="TeXAtom" transform="translate(523,-150) scale(0.707)" data-mjx-texclass="ORD"><g data-mml-node="TeXAtom" data-mjx-texclass="ORD"><g data-mml-node="mn"><path data-c="35" d="M164 157Q164 133 148 117T109 101H102Q148 22 224 22Q294 22 326 82Q345 115 345 210Q345 313 318 349Q292 382 260 382H254Q176 382 136 314Q132 307 129 306T114 304Q97 304 95 310Q93 314 93 485V614Q93 664 98 664Q100 666 102 666Q103 666 123 658T178 642T253 634Q324 634 389 662Q397 666 402 666Q410 666 410 648V635Q328 538 205 538Q174 538 149 544L139 546V374Q158 388 169 396T205 412T256 420Q337 420 393 355T449 201Q449 109 385 44T229 -22Q148 -22 99 32T50 154Q50 178 61 192T84 210T107 214Q132 214 148 197T164 157Z"/><path data-c="34" d="M462 0Q444 3 333 3Q217 3 199 0H190V46H221Q241 46 248 46T265 48T279 53T286 61Q287 63 287 115V165H28V211L179 442Q332 674 334 675Q336 677 355 677H373L379 671V211H471V165H379V114Q379 73 379 66T385 54Q393 47 442 46H471V0H462ZM293 211V545L74 212L183 211H293Z" transform="translate(500,0)"/></g></g></g></g></g></g></svg></g><g transform="rotate(0, 476, 570)translate(472, 564.672)"><title>`f_54`.value</title><svg style="font-size: 16px" xmlns="http://www.w3.org/2000/svg" width="8" height="10.656" role="img" focusable="false" viewBox="0 -666 500 666"><g stroke="none" fill="#000000" stroke-width="0" transform="scale(1,-1)" fill-opacity="1"><g data-mml-node="math"><g data-mml-node="mn"><path data-c="31" d="M213 578L200 573Q186 568 160 563T102 556H83V602H102Q149 604 189 617T245 641T273 663Q275 666 285 666Q294 666 302 660V361L303 61Q310 54 315 52T339 48T401 46H427V0H416Q395 3 257 3Q121 3 100 0H88V46H114Q136 46 152 46T177 47T193 50T201 52T207 57T213 61V578Z"/></g></g></g></svg></g><rect x="84" y="90" width="80" height="80" fill="#3a5a40" fill-opacity="1" stroke="none" rx="8" transform="rotate(0, 124, 130)"><title>`f_00`.shape</title></rect><g transform="rotate(0, 146, 108)translate(138.3194, 102.54)"><title>`f_00`.text</title><svg style="font-size: 12px" xmlns="http://www.w3.org/2000/svg" width="15.3612" height="10.92" role="img" focusable="false" viewBox="0 -705 1280.1 910"><g stroke="none" fill="#000000" stroke-width="0" transform="scale(1,-1)" fill-opacity="1"><g data-mml-node="math"><g data-mml-node="msub"><g data-mml-node="TeXAtom" data-mjx-texclass="ORD"><g data-mml-node="mi"><path data-c="1D453" d="M118 -162Q120 -162 124 -164T135 -167T147 -168Q160 -168 171 -155T187 -126Q197 -99 221 27T267 267T289 382V385H242Q195 385 192 387Q188 390 188 397L195 425Q197 430 203 430T250 431Q298 431 298 432Q298 434 307 482T319 540Q356 705 465 705Q502 703 526 683T550 630Q550 594 529 578T487 561Q443 561 443 603Q443 622 454 636T478 657L487 662Q471 668 457 668Q445 668 434 658T419 630Q412 601 403 552T387 469T380 433Q380 431 435 431Q480 431 487 430T498 424Q499 420 496 407T491 391Q489 386 482 386T428 385H372L349 263Q301 15 282 -47Q255 -132 212 -173Q175 -205 139 -205Q107 -205 81 -186T55 -132Q55 -95 76 -78T118 -61Q162 -61 162 -103Q162 -122 151 -136T127 -157L118 -162Z"/></g></g><g data-mml-node="TeXAtom" transform="translate(523,-150) scale(0.707)" data-mjx-texclass="ORD"><g data-mml-node="TeXAtom" data-mjx-texclass="ORD"><g data-mml-node="mn"><path data-c="30" d="M96 585Q152 666 249 666Q297 666 345 640T423 548Q460 465 460 320Q460 165 417 83Q397 41 362 16T301 -15T250 -22Q224 -22 198 -16T137 16T82 83Q39 165 39 320Q39 494 96 585ZM321 597Q291 629 250 629Q208 629 178 597Q153 571 145 525T137 333Q137 175 145 125T181 46Q209 16 250 16Q290 16 318 46Q347 76 354 130T362 333Q362 478 354 524T321 597Z"/><path data-c="30" d="M96 585Q152 666 249 666Q297 666 345 640T423 548Q460 465 460 320Q460 165 417 83Q397 41 362 16T301 -15T250 -22Q224 -22 198 -16T137 16T82 83Q39 165 39 320Q39 494 96 585ZM321 597Q291 629 250 629Q208 629 178 597Q153 571 145 525T137 333Q137 175 145 125T181 46Q209 16 250 16Q290 16 318 46Q347 76 354 130T362 333Q362 478 354 524T321 597Z" transform="translate(500,0)"/></g></g></g></g></g></g></svg></g><g transform="rotate(0, 124, 130)translate(120, 124.496)"><title>`f_00`.value</title><svg style="font-size: 16px" xmlns="http://www.w3.org/2000/svg" width="8" height="11.008" role="img" focusable="false" viewBox="0 -666 500 688"><g stroke="none" fill="#000000" stroke-width="0" transform="scale(1,-1)" fill-opacity="1"><g data-mml-node="math"><g data-mml-node="mn"><path data-c="30" d="M96 585Q152 666 249 666Q297 666 345 640T423 548Q460 465 460 320Q460 165 417 83Q397 41 362 16T301 -15T250 -22Q224 -22 198 -16T137 16T82 83Q39 165 39 320Q39 494 96 585ZM321 597Q291 629 250 629Q208 629 178 597Q153 571 145 525T137 333Q137 175 145 125T181 46Q209 16 250 16Q290 16 318 46Q347 76 354 130T362 333Q362 478 354 524T321 597Z"/></g></g></g></svg></g><g transform="rotate(0, 36, 482)translate(30, 476.272)"><title>4:4.$ANON_3</title><svg style="font-size: 16px" xmlns="http://www.w3.org/2000/svg" width="12" height="11.456" role="img" focusable="false" viewBox="0 -716 750 716"><g stroke="none" fill="#000000" stroke-width="0" transform="scale(1,-1)" fill-opacity="1"><g data-mml-node="math"><g data-mml-node="mi"><path data-c="1D434" d="M208 74Q208 50 254 46Q272 46 272 35Q272 34 270 22Q267 8 264 4T251 0Q249 0 239 0T205 1T141 2Q70 2 50 0H42Q35 7 35 11Q37 38 48 46H62Q132 49 164 96Q170 102 345 401T523 704Q530 716 547 716H555H572Q578 707 578 706L606 383Q634 60 636 57Q641 46 701 46Q726 46 726 36Q726 34 723 22Q720 7 718 4T704 0Q701 0 690 0T651 1T578 2Q484 2 455 0H443Q437 6 437 9T439 27Q443 40 445 43L449 46H469Q523 49 533 63L521 213H283L249 155Q208 86 208 74ZM516 260Q516 271 504 416T490 562L463 519Q447 492 400 412L310 260L413 259Q516 259 516 260Z"/></g></g></g></svg></g><rect x="84" y="266" width="80" height="80" fill="#3a5a40" fill-opacity="1" stroke="none" rx="8" transform="rotate(0, 124, 306)"><title>`f_20`.shape</title></rect><g transform="rotate(0, 146, 284)translate(138.3194, 278.54)"><title>`f_20`.text</title><svg style="font-size: 12px" xmlns="http://www.w3.org/2000/svg" width="15.3612" height="10.92" role="img" focusable="false" viewBox="0 -705 1280.1 910"><g stroke="none" fill="#000000" stroke-width="0" transform="scale(1,-1)" fill-opacity="1"><g data-mml-node="math"><g data-mml-node="msub"><g data-mml-node="TeXAtom" data-mjx-texclass="ORD"><g data-mml-node="mi"><path data-c="1D453" d="M118 -162Q120 -162 124 -164T135 -167T147 -168Q160 -168 171 -155T187 -126Q197 -99 221 27T267 267T289 382V385H242Q195 385 192 387Q188 390 188 397L195 425Q197 430 203 430T250 431Q298 431 298 432Q298 434 307 482T319 540Q356 705 465 705Q502 703 526 683T550 630Q550 594 529 578T487 561Q443 561 443 603Q443 622 454 636T478 657L487 662Q471 668 457 668Q445 668 434 658T419 630Q412 601 403 552T387 469T380 433Q380 431 435 431Q480 431 487 430T498 424Q499 420 496 407T491 391Q489 386 482 386T428 385H372L349 263Q301 15 282 -47Q255 -132 212 -173Q175 -205 139 -205Q107 -205 81 -186T55 -132Q55 -95 76 -78T118 -61Q162 -61 162 -103Q162 -122 151 -136T127 -157L118 -162Z"/></g></g><g data-mml-node="TeXAtom" transform="translate(523,-150) scale(0.707)" data-mjx-texclass="ORD"><g data-mml-node="TeXAtom" data-mjx-texclass="ORD"><g data-mml-node="mn"><path data-c="32" d="M109 429Q82 429 66 447T50 491Q50 562 103 614T235 666Q326 666 387 610T449 465Q449 422 429 383T381 315T301 241Q265 210 201 149L142 93L218 92Q375 92 385 97Q392 99 409 186V189H449V186Q448 183 436 95T421 3V0H50V19V31Q50 38 56 46T86 81Q115 113 136 137Q145 147 170 174T204 211T233 244T261 278T284 308T305 340T320 369T333 401T340 431T343 464Q343 527 309 573T212 619Q179 619 154 602T119 569T109 550Q109 549 114 549Q132 549 151 535T170 489Q170 464 154 447T109 429Z"/><path data-c="30" d="M96 585Q152 666 249 666Q297 666 345 640T423 548Q460 465 460 320Q460 165 417 83Q397 41 362 16T301 -15T250 -22Q224 -22 198 -16T137 16T82 83Q39 165 39 320Q39 494 96 585ZM321 597Q291 629 250 629Q208 629 178 597Q153 571 145 525T137 333Q137 175 145 125T181 46Q209 16 250 16Q290 16 318 46Q347 76 354 130T362 333Q362 478 354 524T321 597Z" transform="translate(500,0)"/></g></g></g></g></g></g></svg></g><g transform="rotate(0, 124, 306)translate(120, 300.672)"><title>`f_20`.value</title><svg style="font-size: 16px" xmlns="http://www.w3.org/2000/svg" width="8" height="10.656" role="img" focusable="false" viewBox="0 -666 500 666"><g stroke="none" fill="#000000" stroke-width="0" transform="scale(1,-1)" fill-opacity="1"><g data-mml-node="math"><g data-mml-node="mn"><path data-c="32" d="M109 429Q82 429 66 447T50 491Q50 562 103 614T235 666Q326 666 387 610T449 465Q449 422 429 383T381 315T301 241Q265 210 201 149L142 93L218 92Q375 92 385 97Q392 99 409 186V189H449V186Q448 183 436 95T421 3V0H50V19V31Q50 38 56 46T86 81Q115 113 136 137Q145 147 170 174T204 211T233 244T261 278T284 308T305 340T320 369T333 401T340 431T343 464Q343 527 309 573T212 619Q179 619 154 602T119 569T109 550Q109 549 114 549Q132 549 151 535T170 489Q170 464 154 447T109 429Z"/></g></g></g></svg></g><g transform="rotate(0, 36, 130)translate(29.776, 124.68)"><title>4:0.$ANON_3</title><svg style="font-size: 16px" xmlns="http://www.w3.org/2000/svg" width="12.448" height="10.64" role="img" focusable="false" viewBox="0 -583 778 665"><g stroke="none" fill="#000000" stroke-width="0" transform="scale(1,-1)" fill-opacity="1"><g data-mml-node="math"><g data-mml-node="mo"><path data-c="2212" d="M84 237T84 250T98 270H679Q694 262 694 250T679 230H98Q84 237 84 250Z"/></g></g></g></svg></g><rect x="348" y="266" width="80" height="80" fill="#3a5a40" fill-opacity="1" stroke="none" rx="8" transform="rotate(0, 388, 306)"><title>`f_23`.shape</title></rect><g transform="rotate(0, 410, 284)translate(402.3194, 278.54)"><title>`f_23`.text</title><svg style="font-size: 12px" xmlns="http://www.w3.org/2000/svg" width="15.3612" height="10.92" role="img" focusable="false" viewBox="0 -705 1280.1 910"><g stroke="none" fill="#000000" stroke-width="0" transform="scale(1,-1)" fill-opacity="1"><g data-mml-node="math"><g data-mml-node="msub"><g data-mml-node="TeXAtom" data-mjx-texclass="ORD"><g data-mml-node="mi"><path data-c="1D453" d="M118 -162Q120 -162 124 -164T135 -167T147 -168Q160 -168 171 -155T187 -126Q197 -99 221 27T267 267T289 382V385H242Q195 385 192 387Q188 390 188 397L195 425Q197 430 203 430T250 431Q298 431 298 432Q298 434 307 482T319 540Q356 705 465 705Q502 703 526 683T550 630Q550 594 529 578T487 561Q443 561 443 603Q443 622 454 636T478 657L487 662Q471 668 457 668Q445 668 434 658T419 630Q412 601 403 552T387 469T380 433Q380 431 435 431Q480 431 487 430T498 424Q499 420 496 407T491 391Q489 386 482 386T428 385H372L349 263Q301 15 282 -47Q255 -132 212 -173Q175 -205 139 -205Q107 -205 81 -186T55 -132Q55 -95 76 -78T118 -61Q162 -61 162 -103Q162 -122 151 -136T127 -157L118 -162Z"/></g></g><g data-mml-node="TeXAtom" transform="translate(523,-150) scale(0.707)" data-mjx-texclass="ORD"><g data-mml-node="TeXAtom" data-mjx-texclass="ORD"><g data-mml-node="mn"><path data-c="32" d="M109 429Q82 429 66 447T50 491Q50 562 103 614T235 666Q326 666 387 610T449 465Q449 422 429 383T381 315T301 241Q265 210 201 149L142 93L218 92Q375 92 385 97Q392 99 409 186V189H449V186Q448 183 436 95T421 3V0H50V19V31Q50 38 56 46T86 81Q115 113 136 137Q145 147 170 174T204 211T233 244T261 278T284 308T305 340T320 369T333 401T340 431T343 464Q343 527 309 573T212 619Q179 619 154 602T119 569T109 550Q109 549 114 549Q132 549 151 535T170 489Q170 464 154 447T109 429Z"/><path data-c="33" d="M127 463Q100 463 85 480T69 524Q69 579 117 622T233 665Q268 665 277 664Q351 652 390 611T430 522Q430 470 396 421T302 350L299 348Q299 347 308 345T337 336T375 315Q457 262 457 175Q457 96 395 37T238 -22Q158 -22 100 21T42 130Q42 158 60 175T105 193Q133 193 151 175T169 130Q169 119 166 110T159 94T148 82T136 74T126 70T118 67L114 66Q165 21 238 21Q293 21 321 74Q338 107 338 175V195Q338 290 274 322Q259 328 213 329L171 330L168 332Q166 335 166 348Q166 366 174 366Q202 366 232 371Q266 376 294 413T322 525V533Q322 590 287 612Q265 626 240 626Q208 626 181 615T143 592T132 580H135Q138 579 143 578T153 573T165 566T175 555T183 540T186 520Q186 498 172 481T127 463Z" transform="translate(500,0)"/></g></g></g></g></g></g></svg></g><g transform="rotate(0, 388, 306)translate(384, 300.672)"><title>`f_23`.value</title><svg style="font-size: 16px" xmlns="http://www.w3.org/2000/svg" width="8" height="10.656" role="img" focusable="false" viewBox="0 -666 500 666"><g stroke="none" fill="#000000" stroke-width="0" transform="scale(1,-1)" fill-opacity="1"><g data-mml-node="math"><g data-mml-node="mn"><path data-c="31" d="M213 578L200 573Q186 568 160 563T102 556H83V602H102Q149 604 189 617T245 641T273 663Q275 666 285 666Q294 666 302 660V361L303 61Q310 54 315 52T339 48T401 46H427V0H416Q395 3 257 3Q121 3 100 0H88V46H114Q136 46 152 46T177 47T193 50T201 52T207 57T213 61V578Z"/></g></g></g></svg></g><rect x="260" y="442" width="80" height="80" fill="#3a5a40" fill-opacity="1" stroke="none" rx="8" transform="rotate(0, 300, 482)"><title>`f_42`.shape</title></rect><g transform="rotate(0, 322, 460)translate(314.3194, 454.54)"><title>`f_42`.text</title><svg style="font-size: 12px" xmlns="http://www.w3.org/2000/svg" width="15.3612" height="10.92" role="img" focusable="false" viewBox="0 -705 1280.1 910"><g stroke="none" fill="#000000" stroke-width="0" transform="scale(1,-1)" fill-opacity="1"><g data-mml-node="math"><g data-mml-node="msub"><g data-mml-node="TeXAtom" data-mjx-texclass="ORD"><g data-mml-node="mi"><path data-c="1D453" d="M118 -162Q120 -162 124 -164T135 -167T147 -168Q160 -168 171 -155T187 -126Q197 -99 221 27T267 267T289 382V385H242Q195 385 192 387Q188 390 188 397L195 425Q197 430 203 430T250 431Q298 431 298 432Q298 434 307 482T319 540Q356 705 465 705Q502 703 526 683T550 630Q550 594 529 578T487 561Q443 561 443 603Q443 622 454 636T478 657L487 662Q471 668 457 668Q445 668 434 658T419 630Q412 601 403 552T387 469T380 433Q380 431 435 431Q480 431 487 430T498 424Q499 420 496 407T491 391Q489 386 482 386T428 385H372L349 263Q301 15 282 -47Q255 -132 212 -173Q175 -205 139 -205Q107 -205 81 -186T55 -132Q55 -95 76 -78T118 -61Q162 -61 162 -103Q162 -122 151 -136T127 -157L118 -162Z"/></g></g><g data-mml-node="TeXAtom" transform="translate(523,-150) scale(0.707)" data-mjx-texclass="ORD"><g data-mml-node="TeXAtom" data-mjx-texclass="ORD"><g data-mml-node="mn"><path data-c="34" d="M462 0Q444 3 333 3Q217 3 199 0H190V46H221Q241 46 248 46T265 48T279 53T286 61Q287 63 287 115V165H28V211L179 442Q332 674 334 675Q336 677 355 677H373L379 671V211H471V165H379V114Q379 73 379 66T385 54Q393 47 442 46H471V0H462ZM293 211V545L74 212L183 211H293Z"/><path data-c="32" d="M109 429Q82 429 66 447T50 491Q50 562 103 614T235 666Q326 666 387 610T449 465Q449 422 429 383T381 315T301 241Q265 210 201 149L142 93L218 92Q375 92 385 97Q392 99 409 186V189H449V186Q448 183 436 95T421 3V0H50V19V31Q50 38 56 46T86 81Q115 113 136 137Q145 147 170 174T204 211T233 244T261 278T284 308T305 340T320 369T333 401T340 431T343 464Q343 527 309 573T212 619Q179 619 154 602T119 569T109 550Q109 549 114 549Q132 549 151 535T170 489Q170 464 154 447T109 429Z" transform="translate(500,0)"/></g></g></g></g></g></g></svg></g><g transform="rotate(0, 300, 482)translate(296, 476.672)"><title>`f_42`.value</title><svg style="font-size: 16px" xmlns="http://www.w3.org/2000/svg" width="8" height="10.656" role="img" focusable="false" viewBox="0 -666 500 666"><g stroke="none" fill="#000000" stroke-width="0" transform="scale(1,-1)" fill-opacity="1"><g data-mml-node="math"><g data-mml-node="mn"><path data-c="32" d="M109 429Q82 429 66 447T50 491Q50 562 103 614T235 666Q326 666 387 610T449 465Q449 422 429 383T381 315T301 241Q265 210 201 149L142 93L218 92Q375 92 385 97Q392 99 409 186V189H449V186Q448 183 436 95T421 3V0H50V19V31Q50 38 56 46T86 81Q115 113 136 137Q145 147 170 174T204 211T233 244T261 278T284 308T305 340T320 369T333 401T340 431T343 464Q343 527 309 573T212 619Q179 619 154 602T119 569T109 550Q109 549 114 549Q132 549 151 535T170 489Q170 464 154 447T109 429Z"/></g></g></g></svg></g><penrose><version>0.1</version><variation>DanubeGiraffe8516</variation><sub>Matrix F
Dim(F, 6, 5)

RowLabel(F, 1, &quot;-&quot;)
RowLabel(F, 2, &quot;A&quot;)
RowLabel(F, 3, &quot;G&quot;)
RowLabel(F, 4, &quot;T&quot;)
RowLabel(F, 5, &quot;A&quot;)
RowLabel(F, 6, &quot;C&quot;)

ColLabel(F, 1, &quot;-&quot;)
ColLabel(F, 2, &quot;A&quot;)
ColLabel(F, 3, &quot;T&quot;)
ColLabel(F, 4, &quot;G&quot;)
ColLabel(F, 5, &quot;C&quot;)

Cell f_00, f_01, f_02, f_03, f_04
Cell f_10, f_11, f_12, f_13, f_14
Cell f_20, f_21, f_22, f_23, f_24
Cell f_30, f_31, f_32, f_33, f_34
Cell f_40, f_41, f_42, f_43, f_44
Cell f_50, f_51, f_52, f_53, f_54

Elem(f_00, F, 1, 1)
Elem(f_01, F, 1, 2)

Elem(f_10, F, 2, 1)
Elem(f_11, F, 2, 2)
Elem(f_12, F, 2, 3)

Elem(f_20, F, 3, 1)
Elem(f_21, F, 3, 2)
Elem(f_22, F, 3, 3)
Elem(f_23, F, 3, 4)

Elem(f_31, F, 4, 2)
Elem(f_32, F, 4, 3)
Elem(f_33, F, 4, 4)
Elem(f_34, F, 4, 5)

Elem(f_42, F, 5, 3)
Elem(f_43, F, 5, 4)
Elem(f_44, F, 5, 5)

Elem(f_53, F, 6, 4)
Elem(f_54, F, 6, 5)

Value(f_00, &quot;0&quot;)
Value(f_01, &quot;1&quot;)

Value(f_10, &quot;1&quot;)
Value(f_11, &quot;0&quot;)
Value(f_12, &quot;1&quot;)

Value(f_20, &quot;2&quot;)
Value(f_21, &quot;1&quot;)
Value(f_22, &quot;0&quot;)
Value(f_23, &quot;1&quot;)

Value(f_31, &quot;2&quot;)
Value(f_32, &quot;1&quot;)
Value(f_33, &quot;0&quot;)
Value(f_34, &quot;1&quot;)

Value(f_42, &quot;2&quot;)
Value(f_43, &quot;1&quot;)
Value(f_44, &quot;0&quot;)

Value(f_53, &quot;2&quot;)
Value(f_54, &quot;1&quot;)

AutoLabel All</sub><sty>canvas {
  height = 700
  width = 600
}

colors {
  color none = rgba(0., 0., 0., 0.)
  color red = #dc2f02

  -- Light color is #a3b18a, or 163, 177, 138 in RGB
  -- with normalized values of 0.639, 0.694, 0.541
  color light = #a3b18a

  -- Middle color is #588157, or 88, 129, 87 in RGB
  -- with normalized values of 0.345, 0.506, 0.341
  color middle = #588157

  -- Shaded color is #3a5a40, or 58, 90, 64 in RGB
  -- with normalized values of 0.227, 0.353, 0.251
  color shaded = #3a5a40

  color matrix = middle
  color cell = shaded
}

cells {
  scalar size = 80
  scalar padding = size / 10
  scalar paddedSize = size + padding
  scalar paddedMid = paddedSize / 2
}

forall Matrix M
where Dim(M, m, n) {
  scalar M.rows = m
  scalar M.cols = n
  
  M.shape = Rectangle {
    fillColor: colors.matrix
    cornerRadius: cells.padding / 2

    -- center: (canvas.width, canvas.height) / 2
    center: (0, 0)
    height: cells.paddedSize * m + cells.padding * 2
    width: cells.paddedSize * n + cells.padding * 2
}

  -- compute x,y of top left corner
  vec4 corners = rectPts (M.shape)
  M.x = corners[1][0] + cells.padding
  M.y = corners[1][1] - cells.padding
}

forall Matrix M
where RowLabel(M, i, l) {
  scalar v = M.y - cells.paddedMid - ((i - 1) * cells.paddedSize)
  Equation {
    string: l
    center: (M.x - cells.paddedMid, v)
  }
}

forall Matrix M
where ColLabel(M, j, l) {
  scalar h = M.x + cells.paddedMid + ((j - 1) * cells.paddedSize)
  Equation {
    string: l
    center: (h, M.y + cells.paddedMid)
  }
}


forall repeatable Cell c; Matrix M
where Elem(c, M, i, j) {
  -- compute horizontal/vertical coordinates h/v for each cell
  scalar h = M.x + cells.paddedMid + ((j - 1) * cells.paddedSize)
  scalar v = M.y - cells.paddedMid - ((i - 1) * cells.paddedSize)

  c.shape = Rectangle {
    fillColor: colors.cell
    cornerRadius: cells.padding

    center: (h, v)
    width: cells.size
    height: cells.size
  }

  c.text = Equation {
    string: TeXify (c.label)
  }

  c.value = Rectangle {
    fillColor: colors.none
    center: (h, v)
    width: 0
    height: 0
  }

  layer c.shape above M.shape
  layer c.text above c.shape
}

forall Cell c1; Cell c2; Arrow q
where q := Step(c1, c2) {
  vec2 mid1 = c1.shape.center
  vec2 mid2 = c2.shape.center
  vec2 direction = normalize(mid2 - mid1)
  
  scalar offset = cells.paddedMid / 2
  vec2 offsetVec = direction * offset
  
  q.line = Line {
    name: &quot;&quot;
    endArrowhead: &quot;straight&quot;
    start: mid1 + offsetVec
    end: mid2 - offsetVec
  }
}

forall Cell c1; Cell c2; Arrow q
where q := Arc(c1, c2) {
  vec2 mid1 = c1.shape.center
  vec2 mid2 = c2.shape.center
  vec2 direction = normalize(mid2 - mid1)

  scalar offset = cells.paddedMid / 2
  vec2 offsetVec = direction * offset

  vec2 pos1 = mid1 + offsetVec
  vec2 pos2 = mid2 - offsetVec

  scalar h1 = mid1[0]
  scalar h2 = mid2[0]
  scalar hm = (h1 + h2) / 2
  
  scalar v1 = mid1[1]
  scalar v2 = mid2[1]
  scalar vm = (v1 + v2) / 2
  scalar vertDisp = cells.paddedMid * max(abs(direction[1]), 0.1)
  vec2 mid = (hm, vm + vertDisp)


  q.line = Path {
    name: &quot;&quot;
    endArrowhead: &quot;concave&quot;
    d: interpolateQuadraticFromPoints(&quot;open&quot;, pos1, mid, pos2)
  }
}

forall Arrow q
where highlight(q) {
  override q.line.strokeColor = colors.red
  override q.line.strokeWidth = 1.2
}

forall Cell c
where Value(c, w) {
  override c.value = Equation {
    string: w
    center: c.shape.center
  }

  vec2 idxOffset = (cells.paddedMid, cells.paddedMid) / 2
  override c.text.center = c.shape.center + idxOffset
  override c.text.fontSize = &quot;12px&quot;
  
  layer c.value above c.text
}

forall repeatable Cell c
where Color(c, r, g, b) {
  override c.shape.fillColor = rgba(r, g, b, 1)
}</sty><dsl>type Symbol -- an element of a sequence
type Sequence -- a sequence of symbols

type Cell -- an element of a matrix
predicate Value(Cell c, String w) -- set a cell value
predicate Color(Cell c, Number r, Number g, Number b) -- set a cell color

type Matrix -- a 2D array of cells
predicate Dim(Matrix M, Number m, Number n) -- set matrix size to mxn
predicate Elem(Cell c, Matrix M, Number i, Number j) -- add cell to matrix at (i,j)

-- set row and col labels
predicate RowLabel(Matrix M, Number i, String l)
predicate ColLabel(Matrix M, Number j, String l)

type Arrow -- arrows lead link a cell to another
predicate highlight(Arrow q) -- highlight an arrow

constructor Step(Cell q, Cell r) -&gt; Arrow -- straight arrow between cells
constructor Arc(Cell q, Cell r) -&gt; Arrow -- curved arrow between cells</dsl></penrose></svg>