<svg xmlns="http://www.w3.org/2000/svg" xmlns:xlink="http://www.w3.org/1999/xlink" version="1.1" class="marks" width="1010" height="636" viewBox="0 0 1010 636"><g fill="none" stroke-miterlimit="10" transform="translate(5,18)"><g class="mark-group role-frame root" role="graphics-object" aria-roledescription="group mark container"><g transform="translate(0,0)"><path class="background" aria-hidden="true" d="M0,0h1000v600h-1000Z"/><g><g class="mark-path role-mark" role="graphics-symbol" aria-roledescription="path mark container"><path transform="translate(0,0)" d="M705.4054054054054,0C705.4054054054054,37.5 575.6756756756757,37.5 575.6756756756757,75" stroke="#ccc"/><path transform="translate(0,0)" d="M705.4054054054054,0C705.4054054054054,37.5 705.4054054054054,37.5 705.4054054054054,75" stroke="#ccc"/><path transform="translate(0,0)" d="M705.4054054054054,0C705.4054054054054,37.5 835.1351351351352,37.5 835.1351351351352,75" stroke="#ccc"/><path transform="translate(0,0)" d="M575.6756756756757,75C575.6756756756757,112.5 437.83783783783787,112.5 437.83783783783787,150" stroke="#ccc"/><path transform="translate(0,0)" d="M575.6756756756757,75C575.6756756756757,112.5 713.5135135135135,112.5 713.5135135135135,150" stroke="#ccc"/><path transform="translate(0,0)" d="M437.83783783783787,150C437.83783783783787,187.5 291.89189189189193,187.5 291.89189189189193,225" stroke="#ccc"/><path transform="translate(0,0)" d="M437.83783783783787,150C437.83783783783787,187.5 583.7837837837839,187.5 583.7837837837839,225" stroke="#ccc"/><path transform="translate(0,0)" d="M713.5135135135135,150C713.5135135135135,187.5 713.5135135135135,187.5 713.5135135135135,225" stroke="#ccc"/><path transform="translate(0,0)" d="M291.89189189189193,225C291.89189189189193,262.5 129.72972972972974,262.5 129.72972972972974,300" stroke="#ccc"/><path transform="translate(0,0)" d="M291.89189189189193,225C291.89189189189193,262.5 454.05405405405406,262.5 454.05405405405406,300" stroke="#ccc"/><path transform="translate(0,0)" d="M583.7837837837839,225C583.7837837837839,262.5 583.7837837837839,262.5 583.7837837837839,300" stroke="#ccc"/><path transform="translate(0,0)" d="M713.5135135135135,225C713.5135135135135,262.5 713.5135135135135,262.5 713.5135135135135,300" stroke="#ccc"/><path transform="translate(0,0)" d="M129.72972972972974,300C129.72972972972974,337.5 64.86486486486487,337.5 64.86486486486487,375" stroke="#ccc"/><path transform="translate(0,0)" d="M129.72972972972974,300C129.72972972972974,337.5 194.5945945945946,337.5 194.5945945945946,375" stroke="#ccc"/><path transform="translate(0,0)" d="M454.05405405405406,300C454.05405405405406,337.5 389.1891891891892,337.5 389.1891891891892,375" stroke="#ccc"/><path transform="translate(0,0)" d="M454.05405405405406,300C454.05405405405406,337.5 518.918918918919,337.5 518.918918918919,375" stroke="#ccc"/><path transform="translate(0,0)" d="M713.5135135135135,300C713.5135135135135,337.5 713.5135135135135,337.5 713.5135135135135,375" stroke="#ccc"/><path transform="translate(0,0)" d="M194.5945945945946,375C194.5945945945946,412.5 194.5945945945946,412.5 194.5945945945946,450" stroke="#ccc"/><path transform="translate(0,0)" d="M389.1891891891892,375C389.1891891891892,412.5 324.3243243243244,412.5 324.3243243243244,450" stroke="#ccc"/><path transform="translate(0,0)" d="M389.1891891891892,375C389.1891891891892,412.5 454.05405405405406,412.5 454.05405405405406,450" stroke="#ccc"/><path transform="translate(0,0)" d="M324.3243243243244,450C324.3243243243244,487.5 194.5945945945946,487.5 194.5945945945946,525" stroke="#ccc"/><path transform="translate(0,0)" d="M324.3243243243244,450C324.3243243243244,487.5 324.3243243243244,487.5 324.3243243243244,525" stroke="#ccc"/><path transform="translate(0,0)" d="M324.3243243243244,450C324.3243243243244,487.5 454.05405405405406,487.5 454.05405405405406,525" stroke="#ccc"/><path transform="translate(0,0)" d="M324.3243243243244,525C324.3243243243244,562.5 324.3243243243244,562.5 324.3243243243244,600" stroke="#ccc"/></g><g class="mark-symbol role-mark" role="graphics-symbol" aria-roledescription="symbol mark container"><path transform="translate(705.4054054054054,0)" d="M11.180339887498949,0A11.180339887498949,11.180339887498949,0,1,1,-11.180339887498949,0A11.180339887498949,11.180339887498949,0,1,1,11.180339887498949,0" fill="#fcbfd2" stroke="black"/><path transform="translate(575.6756756756757,75)" d="M11.180339887498949,0A11.180339887498949,11.180339887498949,0,1,1,-11.180339887498949,0A11.180339887498949,11.180339887498949,0,1,1,11.180339887498949,0" fill="#d67195" stroke="black"/><path transform="translate(437.83783783783787,150)" d="M11.180339887498949,0A11.180339887498949,11.180339887498949,0,1,1,-11.180339887498949,0A11.180339887498949,11.180339887498949,0,1,1,11.180339887498949,0" fill="#fcbfd2" stroke="black"/><path transform="translate(291.89189189189193,225)" d="M11.180339887498949,0A11.180339887498949,11.180339887498949,0,1,1,-11.180339887498949,0A11.180339887498949,11.180339887498949,0,1,1,11.180339887498949,0" fill="#fcbfd2" stroke="black"/><path transform="translate(129.72972972972974,300)" d="M11.180339887498949,0A11.180339887498949,11.180339887498949,0,1,1,-11.180339887498949,0A11.180339887498949,11.180339887498949,0,1,1,11.180339887498949,0" fill="#439894" stroke="black"/><path transform="translate(64.86486486486487,375)" d="M11.180339887498949,0A11.180339887498949,11.180339887498949,0,1,1,-11.180339887498949,0A11.180339887498949,11.180339887498949,0,1,1,11.180339887498949,0" fill="#ff9d98" stroke="black"/><path transform="translate(194.5945945945946,375)" d="M11.180339887498949,0A11.180339887498949,11.180339887498949,0,1,1,-11.180339887498949,0A11.180339887498949,11.180339887498949,0,1,1,11.180339887498949,0" fill="#e45756" stroke="black"/><path transform="translate(194.5945945945946,450)" d="M11.180339887498949,0A11.180339887498949,11.180339887498949,0,1,1,-11.180339887498949,0A11.180339887498949,11.180339887498949,0,1,1,11.180339887498949,0" fill="#83bcb6" stroke="black"/><path transform="translate(454.05405405405406,300)" d="M11.180339887498949,0A11.180339887498949,11.180339887498949,0,1,1,-11.180339887498949,0A11.180339887498949,11.180339887498949,0,1,1,11.180339887498949,0" fill="#fcbfd2" stroke="black"/><path transform="translate(389.1891891891892,375)" d="M11.180339887498949,0A11.180339887498949,11.180339887498949,0,1,1,-11.180339887498949,0A11.180339887498949,11.180339887498949,0,1,1,11.180339887498949,0" fill="#fcbfd2" stroke="black"/><path transform="translate(324.3243243243244,450)" d="M11.180339887498949,0A11.180339887498949,11.180339887498949,0,1,1,-11.180339887498949,0A11.180339887498949,11.180339887498949,0,1,1,11.180339887498949,0" fill="#88d27a" stroke="black"/><path transform="translate(194.5945945945946,525)" d="M11.180339887498949,0A11.180339887498949,11.180339887498949,0,1,1,-11.180339887498949,0A11.180339887498949,11.180339887498949,0,1,1,11.180339887498949,0" fill="#ffbf79" stroke="black"/><path transform="translate(324.3243243243244,525)" d="M11.180339887498949,0A11.180339887498949,11.180339887498949,0,1,1,-11.180339887498949,0A11.180339887498949,11.180339887498949,0,1,1,11.180339887498949,0" fill="#fcbfd2" stroke="black"/><path transform="translate(324.3243243243244,600)" d="M11.180339887498949,0A11.180339887498949,11.180339887498949,0,1,1,-11.180339887498949,0A11.180339887498949,11.180339887498949,0,1,1,11.180339887498949,0" fill="#f2cf5b" stroke="black"/><path transform="translate(454.05405405405406,525)" d="M11.180339887498949,0A11.180339887498949,11.180339887498949,0,1,1,-11.180339887498949,0A11.180339887498949,11.180339887498949,0,1,1,11.180339887498949,0" fill="#54a24b" stroke="black"/><path transform="translate(454.05405405405406,450)" d="M11.180339887498949,0A11.180339887498949,11.180339887498949,0,1,1,-11.180339887498949,0A11.180339887498949,11.180339887498949,0,1,1,11.180339887498949,0" fill="#9ecae9" stroke="black"/><path transform="translate(518.918918918919,375)" d="M11.180339887498949,0A11.180339887498949,11.180339887498949,0,1,1,-11.180339887498949,0A11.180339887498949,11.180339887498949,0,1,1,11.180339887498949,0" fill="#f58518" stroke="black"/><path transform="translate(583.7837837837839,225)" d="M11.180339887498949,0A11.180339887498949,11.180339887498949,0,1,1,-11.180339887498949,0A11.180339887498949,11.180339887498949,0,1,1,11.180339887498949,0" fill="#fcbfd2" stroke="black"/><path transform="translate(583.7837837837839,300)" d="M11.180339887498949,0A11.180339887498949,11.180339887498949,0,1,1,-11.180339887498949,0A11.180339887498949,11.180339887498949,0,1,1,11.180339887498949,0" fill="#4c78a8" stroke="black"/><path transform="translate(713.5135135135135,150)" d="M11.180339887498949,0A11.180339887498949,11.180339887498949,0,1,1,-11.180339887498949,0A11.180339887498949,11.180339887498949,0,1,1,11.180339887498949,0" fill="#fcbfd2" stroke="black"/><path transform="translate(713.5135135135135,225)" d="M11.180339887498949,0A11.180339887498949,11.180339887498949,0,1,1,-11.180339887498949,0A11.180339887498949,11.180339887498949,0,1,1,11.180339887498949,0" fill="#fcbfd2" stroke="black"/><path transform="translate(713.5135135135135,300)" d="M11.180339887498949,0A11.180339887498949,11.180339887498949,0,1,1,-11.180339887498949,0A11.180339887498949,11.180339887498949,0,1,1,11.180339887498949,0" fill="#fcbfd2" stroke="black"/><path transform="translate(713.5135135135135,375)" d="M11.180339887498949,0A11.180339887498949,11.180339887498949,0,1,1,-11.180339887498949,0A11.180339887498949,11.180339887498949,0,1,1,11.180339887498949,0" fill="#bab0ac" stroke="black"/><path transform="translate(705.4054054054054,75)" d="M11.180339887498949,0A11.180339887498949,11.180339887498949,0,1,1,-11.180339887498949,0A11.180339887498949,11.180339887498949,0,1,1,11.180339887498949,0" fill="#b79a20" stroke="black"/><path transform="translate(835.1351351351352,75)" d="M11.180339887498949,0A11.180339887498949,11.180339887498949,0,1,1,-11.180339887498949,0A11.180339887498949,11.180339887498949,0,1,1,11.180339887498949,0" fill="#79706e" stroke="black"/></g><g class="mark-text role-mark" role="graphics-object" aria-roledescription="text mark container"><text text-anchor="middle" transform="translate(705.4054054054054,3)" font-family="sans-serif" font-size="9px" fill="#000"/><text text-anchor="middle" transform="translate(575.6756756756757,78)" font-family="sans-serif" font-size="9px" fill="#000">6</text><text text-anchor="middle" transform="translate(437.83783783783787,153)" font-family="sans-serif" font-size="9px" fill="#000"/><text text-anchor="middle" transform="translate(291.89189189189193,228)" font-family="sans-serif" font-size="9px" fill="#000"/><text text-anchor="middle" transform="translate(129.72972972972974,303)" font-family="sans-serif" font-size="9px" fill="#000">23</text><text text-anchor="middle" transform="translate(64.86486486486487,378)" font-family="sans-serif" font-size="9px" fill="#000">28</text><text text-anchor="middle" transform="translate(194.5945945945946,378)" font-family="sans-serif" font-size="9px" fill="#000">25</text><text text-anchor="middle" transform="translate(194.5945945945946,453)" font-family="sans-serif" font-size="9px" fill="#000">24</text><text text-anchor="middle" transform="translate(454.05405405405406,303)" font-family="sans-serif" font-size="9px" fill="#000"/><text text-anchor="middle" transform="translate(389.1891891891892,378)" font-family="sans-serif" font-size="9px" fill="#000"/><text text-anchor="middle" transform="translate(324.3243243243244,453)" font-family="sans-serif" font-size="9px" fill="#000">20</text><text text-anchor="middle" transform="translate(194.5945945945946,528)" font-family="sans-serif" font-size="9px" fill="#000">16</text><text text-anchor="middle" transform="translate(324.3243243243244,528)" font-family="sans-serif" font-size="9px" fill="#000"/><text text-anchor="middle" transform="translate(324.3243243243244,603)" font-family="sans-serif" font-size="9px" fill="#000">22</text><text text-anchor="middle" transform="translate(454.05405405405406,528)" font-family="sans-serif" font-size="9px" fill="#000">17</text><text text-anchor="middle" transform="translate(454.05405405405406,453)" font-family="sans-serif" font-size="9px" fill="#000">13</text><text text-anchor="middle" transform="translate(518.918918918919,378)" font-family="sans-serif" font-size="9px" fill="#000">14</text><text text-anchor="middle" transform="translate(583.7837837837839,228)" font-family="sans-serif" font-size="9px" fill="#000"/><text text-anchor="middle" transform="translate(583.7837837837839,303)" font-family="sans-serif" font-size="9px" fill="#000">11</text><text text-anchor="middle" transform="translate(713.5135135135135,153)" font-family="sans-serif" font-size="9px" fill="#000"/><text text-anchor="middle" transform="translate(713.5135135135135,228)" font-family="sans-serif" font-size="9px" fill="#000"/><text text-anchor="middle" transform="translate(713.5135135135135,303)" font-family="sans-serif" font-size="9px" fill="#000"/><text text-anchor="middle" transform="translate(713.5135135135135,378)" font-family="sans-serif" font-size="9px" fill="#000">30</text><text text-anchor="middle" transform="translate(705.4054054054054,78)" font-family="sans-serif" font-size="9px" fill="#000">21</text><text text-anchor="middle" transform="translate(835.1351351351352,78)" font-family="sans-serif" font-size="9px" fill="#000">3</text></g></g><path class="foreground" aria-hidden="true" d="" display="none"/></g></g></g></svg>